<svg xmlns="http://www.w3.org/2000/svg" width="98.856" height="106.89" viewBox="0 0 98.856 106.89">
  <g id="Group_284" data-name="Group 284" transform="translate(-60.07 -102.559)">
    <path id="Path_19" data-name="Path 19" d="M60.07,156.766a17.65,17.65,0,0,1,2.543.019,35.941,35.941,0,0,0,7.642.824c2.542-.154,5.084-.337,7.617-.6a36.07,36.07,0,0,1,18.415,2.648,12.775,12.775,0,0,1,5.662,4.767c.825,1.248,1.608,2.525,2.46,3.755a4.178,4.178,0,0,0,1.051.973c.491.346,1.032.62,1.556.918a2.987,2.987,0,0,1,1.468,2.675c.16,2.338.349,4.679.672,7,.265,1.9,1.762,2.946,3.228,4.142.042-.391.083-.631.091-.871a90.211,90.211,0,0,0-.321-13.528c-.371-3.214-.828-6.418-1.156-9.636-.276-2.711-.373-5.44-.64-8.151-.177-1.793-.494-3.574-.792-5.353a3.283,3.283,0,0,0-1.54-2.268,43.9,43.9,0,0,0-6.32-3.743,41.381,41.381,0,0,1-12.291-8.1,42.6,42.6,0,0,1-9.669-11.977,37.3,37.3,0,0,1-1.713-4.419.954.954,0,0,1,.23-.85c.149-.124.615-.039.826.112a22.839,22.839,0,0,1,1.8,1.5,25.6,25.6,0,0,0,11.339,5.91,52.105,52.105,0,0,1,6.47,2.149,11.439,11.439,0,0,1,4.593,3.29c1.864,2.168,3.712,4.353,5.489,6.593a10.709,10.709,0,0,1,2.323,5.915c.337-1.962.845-3.854.458-5.931a35.244,35.244,0,0,1-.641-7.257,23.774,23.774,0,0,1,3.107-10.51c.636-1.2,1.267-2.417,1.994-3.566,1.239-1.958,1.733-4.2,2.544-6.32.508-1.33,1.157-2.608,1.794-3.883.105-.211.475-.29.722-.43.089.268.306.568.249.8a35.589,35.589,0,0,0-.568,10.407A43.411,43.411,0,0,1,119,126.856a9.423,9.423,0,0,1-1.848,3.292,19.647,19.647,0,0,0-3.44,5.861,6.646,6.646,0,0,0-.391,1.818c-.134,3.146-.17,6.3-.339,9.44a28.52,28.52,0,0,0,.675,5.339c.336,2.54.327,5.125.466,7.691.012.214.025.429.035.612.806-.947,1.619-1.874,2.391-2.834a1.085,1.085,0,0,0,.108-.694c-.229-2.94-.443-5.882-.721-8.818a6.092,6.092,0,0,1,1.549-4.948,15.716,15.716,0,0,1,7.187-4.235,36.828,36.828,0,0,1,8.966-1.469,152.282,152.282,0,0,1,15.752,0c2.877.137,5.757.22,8.633.367a1.144,1.144,0,0,1,.85.483,1.272,1.272,0,0,1-.152.971,4.03,4.03,0,0,1-.734.773c-2.037,2.1-4.083,4.195-6.107,6.309-2.225,2.324-4.379,4.7-7.323,6.2a46.14,46.14,0,0,1-10.356,3.527,85.283,85.283,0,0,1-11.649,1.723c-1.021.1-2.036.277-3.047.459a1.032,1.032,0,0,0-.575.392,16.628,16.628,0,0,0-3.381,8.057,16.976,16.976,0,0,0,.3,3.257c.225,2.536.512,5.071.629,7.612.138,2.99.143,5.986.159,8.98a18.887,18.887,0,0,1-.256,2.327,97.177,97.177,0,0,0-.463,13.923c.032,1.34.154,2.679.167,4.019.013,1.232-.5,1.931-1.527,2.125a1.407,1.407,0,0,1-1.007-.159,3.187,3.187,0,0,1-1.5-2.836,133.316,133.316,0,0,0,.379-13.795,9.5,9.5,0,0,0-.948-4.117,26.822,26.822,0,0,0-3.858-5.937,1.309,1.309,0,0,0-.589-.4,58.135,58.135,0,0,1-12.335-5.32,32.824,32.824,0,0,0-10.921-3.841A44.049,44.049,0,0,1,79.357,172c-2.287-.643-4.169-2.12-6.257-3.176a34.853,34.853,0,0,1-8.713-6.633,61.1,61.1,0,0,1-3.956-4.725A4.355,4.355,0,0,1,60.07,156.766Zm38.185,9.6,1.982.875.091-.246-2.005-.7-2.51-.648-.059.323Zm43.088-13.718-.012-.014c.184.012.407.1.546.025,1.259-.658,2.5-1.344,3.751-2.021l-.078-.21a5.511,5.511,0,0,0-1.2.221c-.981.414-1.939.884-2.9,1.354-.591.291-1.163.623-1.743.936l.066.164ZM105.732,135.7c-.1-.976-.967-1.353-1.456-2.025l-.129.1,1.589,1.921-.01.113c-.019-.009-.045-.012-.057-.027q-.664-.782-1.326-1.566l-.333.292,1.239,1.557-.1.089-1.038-1.1c-.155.87.708,2.4,1.814,3.326l-.6-1.165.153-.093,1.144,1.588.186-.109-1.305-2.248.134-.081,1.186,1.593A2.673,2.673,0,0,0,105.732,135.7Zm28.433,9.809a3.456,3.456,0,0,1,.593-.392c1.156-.464,2.32-.906,3.49-1.359-.038-.445-.234-.554-.656-.379-.6.247-1.215.444-1.821.671-.735.274-1.466.557-2.2.836l-.059-.155,4.389-1.75.055-.193c-.2-.063-.43-.218-.606-.174-.626.157-1.235.384-1.851.58-.349.111-.7.215-1.052.322l-.046-.157,3.194-1.18c-.151-.738-.6-.3-.9-.23a10.462,10.462,0,0,0-1.091.362l-.035-.1,1.786-.77-.194-.6-1.269.144-.013-.105,1.211-.316c-.1-.462-.216-.849-.266-1.244s-.263-.458-.6-.432c-1.158.088-2.318.143-3.474.247-.79.071-1.574.2-2.429.317l.588,1.637,1.377-.238.045.143-1.227.449.037.141,1.35-.211.026.124-1.3.427c.343.675.816-.063,1.169.228l-.849.423.041.138h.648l-.455.366.041.092.986-.19.03.1-.846.43.03.179.963-.077-.728.465.037.086.8-.142.039.1-.77.449.678,1.374-.06.7,3.379-1.831-.056-.141Zm-11.2,7.028-.408-.864-4.483,3.671-.14-.168c.16-.137.316-.28.482-.411,1.225-.971,2.455-1.935,3.674-2.913a3.265,3.265,0,0,0,.42-.5l-.17-.157-3.912,3.235-.129-.155c.191-.177.373-.366.574-.531q1.5-1.232,3.014-2.452c.28-.227.516-.447.1-.8l-3.59,2.9-.166-.2c.15-.138.293-.285.452-.412.958-.768,1.924-1.528,2.877-2.3a2.6,2.6,0,0,0,.362-.463l-.151-.121-1.617,1.316-.147-.188,1.648-1.47-.094-.089-1.527,1.087-.133-.167,1.549-1.38-.092-.1-.849.548-.086-.118.852-.955-.116-.088-.862.509-.086-.123.882-.986-.131-.121-.724.424-.075-.115.727-.894-.129-.108-.806.54-.448-.6c1.015-.937,1.015-.937.9-1.263l-.538.127a4.821,4.821,0,0,0,.4-1.175,6.686,6.686,0,0,0-.18-1.382c-2.2,1.44-3.075,3.26-2.843,5.392.272,2.5.328,5.029.474,7.546.011.188,0,.376,0,.674.328-.258.552-.431.773-.608l3.55-2.842-2.812,2.663.07.094,1.813-1.331a17.96,17.96,0,0,0-3.318,4.071l2.866-2.244a1.011,1.011,0,0,1-.234.54c-.1.149-.194.306-.35.554,3.731-1.383,7.094-3.354,10.931-4.184l-4.008-.958c1.534.167,3.04.464,4.553.714a1.731,1.731,0,0,0,.934-.142c.988-.443,1.953-.934,2.927-1.407l.094.187-2.651,1.352.084.175c1.992-.052,3.414-1.594,5.272-2.029l-3.479,1.911.056.16a6.2,6.2,0,0,0,1.105-.309c1.444-.7,2.87-1.439,4.3-2.164a3.639,3.639,0,0,1-.586.506c-.9.5-1.814.962-2.722,1.441-.214.113-.425.232-.638.349l.139.255c2.128-.637,3.844-2.112,5.887-2.922l-.113-.265-1.905.685.882-.663c-1.019-.536-1.817.154-2.728.308l1.069-.543-.05-.154-3.654-.347q-.008.088-.017.176l.176-.254-.1-.166-1.522.645.582-.62-.059-.114-1.558.732-.035-.069.808-.595-.113-.192L131.8,150.2l-.041-.09,1.271-.882-.046-.208c-.738,0-1.636-.273-2.187.048-2.238,1.306-4.392,2.761-6.528,4.231a25.02,25.02,0,0,0-2.279,1.992l-.083-.079,1.687-1.893Zm-13.6,30.2-.136.219c.642.709,1.3,1.4,1.923,2.13a11.1,11.1,0,0,1,2.679,7.382c.008,1.379-.021,2.759-.036,4.138-.03,2.945-.057,5.891-.1,8.836-.006.422-.208.88-.095,1.254a5.246,5.246,0,0,0,.783,1.236c.115-.392.232-.784.341-1.178a.741.741,0,0,0,0-.2c-.034-1.966-.129-3.933-.09-5.9.088-4.529.124-9.049.5-13.581.477-5.744-.11-11.516-.573-17.263a12.676,12.676,0,0,1-.1-2.931,17.318,17.318,0,0,1,1.935-5.747c.111-.2.192-.419.287-.629a2.731,2.731,0,0,0-.589.644c-.691.811-1.377,1.628-2.116,2.394-.147.153-.517.09-.784.127-.012-.284-.043-.57-.031-.853.014-.353.106-.708.086-1.058-.021-.375-.18-.742-.2-1.117-.145-2.809-.256-5.621-.406-8.43a10.74,10.74,0,0,0-1.73-5.352,54.093,54.093,0,0,1,1.4,12.946,38.707,38.707,0,0,0,.883,7.35,38.3,38.3,0,0,1,.872,6.563c.17,3.944.138,7.9.153,11.848a1.071,1.071,0,0,1-.482.832,1.058,1.058,0,0,1-.948-.206c-.9-.923-1.724-1.923-2.6-2.87A4.831,4.831,0,0,0,109.369,182.732Zm-6.418-47.742-1.047-1.57.112-.072,1.118,1.368c.269-.949-.716-1.161-.869-1.785l.2-.179.615,1.015.283-.256L101.5,131.43l.132-.125,1.541,1.5.13-.136-1.863-2.06h.506l-1.084-1.2-.728,2.591a4.136,4.136,0,0,1,.083-1.574.532.532,0,0,0-.305-.7c-.634-.356-1.249-.747-1.872-1.123l.09-.154L100.3,129.7l.168-.1c-.085-.2-.116-.466-.264-.574a33.034,33.034,0,0,0-6.522-3.779,3.245,3.245,0,0,0-.543-.127l-.126.177c.168.185.3.437.51.544.853.441,1.73.834,2.594,1.251.394.19.779.4,1.169.6l-.1.218-3.954-1.87-.1.205,3.128,1.565-.1.207-2.92-1.424c-.228,1.022-.226,1.016.621,1.4.366.164.723.352,1.077.542s.721.409,1.081.614l-.115.19-2.726-1.372-.135.248,2.805,1.505c-1.073.059-1.8-.946-2.851-.963l-.7-.684.716.042c-.141-.19-.269-.284-.28-.39a7.3,7.3,0,0,1-.129-2.108c.149-.726-.232-.9-.69-1.136l-2.981-1.527-.089.137c1.071.818,2.432,1.182,3.525,1.965l-.093.182-3.192-1.6-.138.239c.889.72,2.056,1.02,2.907,1.82l-2.7-1.337-.117.209,1.7.971-.076.151L89.171,125l-.111.183.684.637-.609-.093c-.055.373-.055.373,1.135,1.666a47.792,47.792,0,0,1-9.089-7.247,9.689,9.689,0,0,0,2.963,3.8A46.487,46.487,0,0,0,95.3,130.931q2.457,1.062,4.842,2.29C101.074,133.7,101.931,134.341,102.951,134.99ZM86.587,167.141l5.92-.459-.008-.121-5.633.327q-.009-.124-.019-.248l5.159-.385q0-.1,0-.2H86.824v-.293c2.688-.246,5.4.1,8.089.011l.006-.192-.667-.127.71-.258-.311-.747h-7.5c0-.057,0-.113,0-.17,2.553-.5,5.122.1,7.723-.085a1,1,0,0,0-.6-.394c-.776-.086-1.557-.153-2.338-.172-1.13-.028-2.261-.007-3.392-.007q0-.146,0-.292h6.238l.05-.337c-1.462-.213-2.948-.277-4.434-.459h4.343l.049-.276c-1.057-.435-2.26-.146-3.354-.52h3.186q0-.107.009-.215l-2.895-.285.019-.247,2.762.176.036-.2c-1.009-.461-2.192-.216-3.206-.713l2.666.215a41.821,41.821,0,0,0-9.36-2.007C86.022,161.233,85.8,164.249,86.587,167.141ZM131.493,148.5a4.185,4.185,0,0,0,3.976-.611,1.805,1.805,0,0,1,.48-.233,1.767,1.767,0,0,1,.394-.041l.062.168-1.859,1.006.056.116,2.72-1.259.11.238-1.969,1.03a11.17,11.17,0,0,0,1.93-.766,1.544,1.544,0,0,1,.559-.11c.16-.007.335.093.482.058.715-.168,1.424-.366,2.134-.554l.045.133-2.856,1.561c.883.453,1.431-.18,2.063-.419s1.262-.506,1.892-.76l.092.208-2.59,1.193c1.51.62,2.486-.687,3.9-.779l-2.015,1.04c1.283.483,2.1-.563,3.17-.587l-1.106.629c1.333-.1,2.323-1.055,3.605-1.3l-2.5,1.323c1.46.268,2.312-.841,3.49-1l-1.579.893.17.231c1.7-.562,2.629-2.114,4.033-3.255-.26-.067-.364-.106-.47-.12-3.278-.424-6.567-.774-9.828-1.3a6.3,6.3,0,0,0-4.341.831C134.365,146.863,132.977,147.651,131.493,148.5Zm-6.907,2.621-.079-.108-.528.3-.076-.1,1.08-.89-.039-.069-.6.247-.079-.147c.888-.547,1.779-1.089,2.662-1.644a2.226,2.226,0,0,0,.348-.344l-.142-.154-2.85,1.63-.081-.142,2.824-1.71c-.409-1.162-.775-2.383-1.268-3.551-.5-1.183-1.123-2.314-1.749-3.581-1.106.571-2.138,1.086-3.146,1.645a.766.766,0,0,0-.323.576c.008.524.107,1.046.179,1.652l2.215-1.392.139.221c-.645.458-1.3.9-1.925,1.386-.155.121-.2.384-.294.581l.184.093,1.976-1.483a5.326,5.326,0,0,1-.711,1.349c-1.021,1-1.049.97-1.027,1.3l1.2-.961.1.124-1.325,1.4.186.188,1.272-.974.273.294-1.541,1.11.208.225,1.311-1.042.12.145c-.252.22-.515.429-.754.663-.211.206-.4.44-.592.661l.115.1,1.393-1.122.149.174-1.519,1.411.126.129.511-.228-.444.758.168.1.8-.512c-.1.51-1.039.575-.535,1.275l.554-.224c-.477.517-.241,1.438.507,2.344l.726-1.112-.48.164-.044-.087Zm-50.792,7.353c-.268,1.063.717.82,1.131,1.28l-.877-.117-.044.107.9.464-.051.117h-.891l.776.555-.494.371,1.063.591-.732.089c.18,1.18.344,2.317.536,3.449a.707.707,0,0,0,.308.385,7.876,7.876,0,0,0,4.669,1.076c-.058-.457-.079-.877-.168-1.282-.485-2.22-.975-4.439-1.5-6.649-.057-.238-.362-.6-.55-.6C76.5,158.325,75.12,158.413,73.795,158.474Zm5.779,2.39h3.4q0,.092.007.185H79.693l1,5.911,5.446.248c-.376-1.934-.671-3.718-1.085-5.475a24.52,24.52,0,0,0-1.028-2.951.631.631,0,0,0-.4-.372c-.933-.075-1.871-.1-2.807-.146l0,.1,1.572.215-.022.2-3.47-.268c0,.529.241.587.615.576,1.049-.031,2.1-.023,3.148-.021a2.586,2.586,0,0,1,.45.079l-.017.151H79.2c-.013.456.118.62.548.6,1.026-.036,2.054-.018,3.082-.012a4.228,4.228,0,0,1,.567.078l-.023.177H79.39Zm21.873,16.881.069-.133-2.424-1.544.08-.139,3.667,2.079.13-.236-3.124-1.922.117-.19c1.039.633,2.073,1.274,3.121,1.891a1.2,1.2,0,0,0,.722.225c1.116-.215,2.219-.493,3.329-.737.472-.1.6-.344.472-.818-.114-.427-.111-.885-.186-1.325-.171-1-.358-2-.543-3.02a25.924,25.924,0,0,0-3.75,1.167c-2.412.962-4.979,1.537-7.482,2.272l-.657.191,2.422,1.2.075-.147-1.853-.99.122-.223,4.619,2.372.056-.111-3.164-1.8.1-.2Zm-11.979-5.988.039-.193,2.385,1.008.087-.2L90.4,171.6l.076-.177c.408.146.812.308,1.226.434s.766.573,1.308.154l-.757-.354a1.689,1.689,0,0,1,.71.045,1.656,1.656,0,0,0,.766.06,10.255,10.255,0,0,0,4.222-3.3c-.1-.047-.152-.095-.208-.1-2.315-.133-4.629-.273-6.945-.376a1.142,1.142,0,0,0-.684.332,13.05,13.05,0,0,1-5.349,3.317c-.054.014-.1.078-.146.121l5.638,1.488.052-.129-1.92-.818.075-.195c.47.155.943.3,1.41.467.981.343.98.346,1.408.066Zm1.477,1.633-.06.157c.86.4,1.711.82,2.586,1.182a1.629,1.629,0,0,0,.953.106c2.51-.633,5.01-1.311,7.517-1.96a6.287,6.287,0,0,0,3.016-2.148c-1.639-.607-3.211-1.168-4.764-1.774a1.285,1.285,0,0,0-1.459.247c-1.145.982-2.32,1.929-3.481,2.888l2.638,1.1-.094.234-3.15-1.278-.08.2,1.867.9-.1.182c-.944-.025-1.629-1-2.671-.719l1.662.841-.095.225-2.285-.925-.059.154,1.687.785c-1.041.2-1.753-.769-2.78-.519l2.022.844-.095.242Zm38.573-29.133,1.757-.836-.092-.2-1.622.577-.033-.1,1.539-.728-.089-.21-1.98.625-.043-.136,1.844-.733q-.009-.156-.017-.311c-.532-.216-1.044.375-1.739.357l1.5-.756-.084-.187-2,.693-.041-.109,1.938-.931a11.609,11.609,0,0,1-.414-1.156c-.118-.478-.38-.586-.83-.479-.954.227-1.911.449-2.875.631-.373.07-.468.228-.445.584a21.134,21.134,0,0,0,1.914,7.487.656.656,0,0,0,.144.162c1.5-.682,2.959-1.338,4.405-2.032.125-.06.129-.373.189-.569l-.175-.067-3.616,1.842-.069-.134,3.635-2.052-.089-.188-3.578,1.715-.086-.161,3.564-1.926-.118-.234-1.894.852-.054-.118,1.777-1-.07-.13-.95.3-.029-.085.892-.515-.073-.277C130.827,143.742,130.226,144.265,129.517,144.256Zm-10.589-26.935c-.693.514-1.315.949-1.9,1.426a1.76,1.76,0,0,0-.558.706,50.729,50.729,0,0,0-1.956,5.727,67.637,67.637,0,0,0-1.858,10.534c-.069,1-.186,2-.281,3,.509-2.451.6-4.983,1.746-7.279l-.177,1.376c.987-1.4,1.914-2.7,2.825-4.013a3.086,3.086,0,0,0-.472-3.875l-1.932,4.589C115.433,125.316,117.681,121.556,118.928,117.321Zm34.213,26.043-.176-.19c-1.166.158-1.609,1.464-2.71,1.8l.211-.438-.863.542-.055-.075.381-.569-.087-.12-1.27.71-.073-.121,1.721-1.426-.105-.143-3.02,2.172-.052-.065,1.118-1.028-.058-.081-1.176.685-.089-.168,2.85-1.75c-.125-.016-.374-.061-.625-.077-.668-.043-1.341-.044-2.006-.114a9.584,9.584,0,0,0-5.549.736,17.706,17.706,0,0,1-1.88.7,5.458,5.458,0,0,0-.512.265c1.685.217,3.25.409,4.813.622,2.078.283,4.153.593,6.232.865a1.054,1.054,0,0,0,.8-.166C151.717,145.106,152.419,144.225,153.141,143.364ZM79.573,170.678c3.517,1.81,7.427.1,10.17-2.739-2.017,0-3.952-.009-5.886.013a1.354,1.354,0,0,0-.647.286C81.989,169.046,80.777,169.868,79.573,170.678Zm69.4-31.083-8.616-.612v4.036ZM74.181,167.883c1.161.7,2.2,1.3,3.214,1.939a1.8,1.8,0,0,0,1.789.151c1.172-.568,2.3-1.231,3.443-1.856l-.066-.187c-.165-.031-.328-.073-.494-.091q-2.751-.3-5.5-.59a.883.883,0,0,0-.329.022C75.595,167.456,74.957,167.65,74.181,167.883Zm14.078-39.814c-.4,1.1-.357,1.285.42,1.973s1.571,1.389,2.36,2.08c.662.581,1.328,1.159,2.037,1.777.01-.183.014-.266.018-.349l.723.161c-.148-.72-.278-1.472-.466-2.209a1.229,1.229,0,0,0-.431-.7c-1.1-.684-2.224-1.319-3.342-1.969C89.141,128.576,88.7,128.326,88.259,128.069ZM75.844,166.976l-11.352-6.5c.813.692,1.506,1.336,2.254,1.909,2.157,1.651,4.333,3.277,6.513,4.9a.967.967,0,0,0,.66.211C74.542,167.37,75.151,167.168,75.844,166.976Zm27.189-27.334.066-.113-3.78-2.4.119-.19,4.4,2.615.161-.25-4.7-3.1.119-.2,4.328,2.632.127-.206-4.2-2.553.108-.187,3.689,2c-1.119-1.437-2.9-1.823-4.264-2.91l2.25.978.082-.159-2.942-1.87c.09,1.328.157,2.461.256,3.592a.675.675,0,0,0,.273.485C100.42,138.434,101.729,139.033,103.033,139.641Zm-4.751-2.3a1.918,1.918,0,0,0,.014-.264c-.093-1.108-.185-2.216-.292-3.323a.558.558,0,0,0-.173-.392c-.928-.511-1.87-1-2.818-1.5-.28.787-.173,1.315.6,1.619a6.9,6.9,0,0,1,1.046.632l-.1.178-1.679-.9-.068.125,2.494,1.517-.134.232-2.316-1.284-.149.236a26.441,26.441,0,0,0,2.6,1.611l-.087.18-2.247-.991C94.967,135.623,96.773,136.913,98.281,137.342Zm26.808,19.434c3.865-.854,7.852-1.094,11.675-2.255A18.2,18.2,0,0,0,125.089,156.776Zm-5.365-45.833-.16-.012-2.713,7.6a14.57,14.57,0,0,0,1.554-1.088,2.164,2.164,0,0,0,.988-1.658Q119.559,113.367,119.724,110.944Zm30.825,31.126-.046-.117,2.864-1.4-.064-.166c-.864.2-1.723.436-2.594.605s-1.744.219-2.595.418c-.878.205-1.728.527-2.591.8l.038.308c1.334,0,2.675-.081,4,.03a2.265,2.265,0,0,0,1.888-.768ZM88.063,123.025l.135.009c-.012-.142.021-.379-.045-.411-.71-.341-1.436-.65-2.172-.975-.445,2.591.6,2.865,2.74,3.422l.108-.166-1.382-.837.057-.119,1.07.363.077-.163-1.252-.7.032-.077,1.019.277.074-.125ZM139.288,141.8l.046.158c-.235.087-.536.118-.678.284-.074.088.132.413.217.649l-.125.747.863-.289-.255-4.428a4.628,4.628,0,0,0-.882.013c-.269.051-.749.254-.737.318.077.426-.045,1.006.522,1.116-.047.185-.187.428-.118.54.095.152.351.2.443.251l-.3.811Zm-31.67-4.376-.1.072,1.661,2.8-.147.081-1.552-2.333-.251.124a3.978,3.978,0,0,0,.316.823c.654.989,1.34,1.958,2.014,2.934l-.12.082-2.34-3.068-.22.162,2.686,3.774a9.192,9.192,0,0,0,.134-2.1,1.88,1.88,0,0,0-.17-.973C108.935,138.982,108.261,138.215,107.617,137.426Zm-25.569-18.1-.053.055c.589.666,1.17,1.34,1.771,2s1.2,1.27,1.916,2.017c0-.646.03-1.108-.014-1.562a.793.793,0,0,0-.306-.536C84.27,120.617,83.156,119.976,82.049,119.323Zm35.807,7.238c.769-1.815.66-2.827-.477-3.8-.217.469-.452.923-.632,1.4a.734.734,0,0,0,.056.536C117.139,125.331,117.508,125.951,117.856,126.562Zm1.669-8.338-.149-.039c-.524,1.2-1.055,2.39-1.56,3.594a.6.6,0,0,0,.072.475c.209.33.463.632.774,1.044Zm13.187,28.584-.168-.218-4.52,2.2c.446.937.9.36,1.33.128.724-.391,1.449-.78,2.15-1.21C131.93,147.445,132.311,147.11,132.712,146.808ZM95.846,164.782l-.188.23c.115.133.206.332.35.384a7.357,7.357,0,0,0,.852.157,22.466,22.466,0,0,1,2.592.636,25.988,25.988,0,0,1,2.47,1.171l.151-.24c-.253-.2-.474-.5-.763-.6C99.5,165.918,97.669,165.357,95.846,164.782Zm4.869-36.443.161-.3a36.513,36.513,0,0,0-7.692-3.412.882.882,0,0,0,.462.311c1.539.458,2.768,1.593,4.4,1.9a7.694,7.694,0,0,1,2.141,1.206C100.364,128.143,100.541,128.24,100.715,128.339Zm15.69-13.606a3.493,3.493,0,0,0-.332.533c-.446,1.321-.9,2.642-1.306,3.974-.063.2.074.467.118.7.622-1.427,1.146-2.822,1.622-4.234C116.586,115.475,116.457,115.17,116.405,114.733ZM98.486,162.765l.128-.271-3.292-1.826a8.233,8.233,0,0,0,.186,1.052c.055.166.189.391.331.428C96.714,162.379,97.6,162.564,98.486,162.765Zm-25.807.008.207-.185a2.624,2.624,0,0,0-.552-.531c-1.369-.694-2.753-1.36-4.134-2.032-.141-.069-.293-.113-.44-.169l-.093.19A26.68,26.68,0,0,0,72.679,162.773Zm-.077-.918c.2-.591-.083-.727-.422-.861-1.265-.5-2.523-1.011-3.784-1.52-.256-.1-.511-.21-.767-.314l-.108.24Zm34.948,17.533-.118.219-2.635-1.414-.094.195,3.552,1.958-.355-1.779c-.351-.151-.652-.294-.963-.412s-.6-.2-.9-.3l-.069.212,1.648.837-.077.173-1-.41-.039.1Zm10.2-66.034c.911-.814.764-1.94.93-2.98-.657,1.167-1.272,2.345-1.886,3.524-.031.059-.091.118-.09.177,0,.223.022.445.035.667l.158.016.921-2.175.125.045ZM108.4,180.886a4.221,4.221,0,0,1-.95-.221c-1.177-.628-2.332-1.3-3.505-1.93a3.226,3.226,0,0,0-.716-.2l-.072.232,5.363,2.784.1-.161Zm35.175-30.3c-.62-.151-4.972,1.994-5.593,2.717C139.987,152.755,141.581,151.386,143.58,150.586ZM100.749,165.38l.1-.263-5.071-1.976-.184.3c.17.137.32.339.514.4,1,.316,2.014.577,3.012.895C99.675,164.913,100.207,165.163,100.749,165.38Zm16.116-49.153c-.513,1.44-.983,2.756-1.453,4.072-.023.063-.075.124-.073.185.006.212.029.423.06.818C116.336,119.49,117.137,116.836,116.865,116.226Zm-12.742,14.853-.225.112a3.481,3.481,0,0,0,.451.814c.865.886,1.764,1.738,2.651,2.6A13.68,13.68,0,0,0,104.122,131.079ZM95.7,162.392l-.119.149c.09.138.157.37.274.4,1.213.3,2.434.557,3.652.829l.073-.284C98.393,162.782,96.943,162.94,95.7,162.392Zm.017,1.883a9.329,9.329,0,0,0,2.7.931c.953.311,1.913.6,2.87.9l.076-.235A37.628,37.628,0,0,0,95.721,164.275Zm-.969-39.91-.1.251,5.313,2.565.121-.259Zm-7.074,3.367L85.485,126.3l-.087.095,1.919,2.2ZM74.744,165.359l.148-.088c-.11-.314-.131-.748-.352-.914a3.42,3.42,0,0,0-1.189-.4c-.093-.024-.3.054-.309.111-.022.118.013.32.1.371C73.662,164.762,74.206,165.055,74.744,165.359Zm-6.1-6.415-.1.276,3.942,1.511.111-.3Zm44.449-29.486-.289-.041c-.186,1.12-.651,2.215-.206,3.583Zm2.158-8.1-.213-.03-.981,3.688.186.048A16.009,16.009,0,0,0,115.252,121.362ZM103.2,130.829l.2-.141c-.382-1.016-1.361-1.485-2.031-2.237l-.174.157Zm9.682-1.759.292.076.889-3.683-.208-.05Zm-4.969,7.693-.186.122,1.662,2.466C109.445,138.018,108.413,137.562,107.917,136.764ZM102,178.7l-.077.173,2.824,1.289.072-.16C103.84,179.643,103.118,178.722,102,178.7Zm4.714-43.506c-.493-1.3-1.733-1.894-2.507-2.919l-.16.149ZM72.572,164.14l.25-.361a27.49,27.49,0,0,1-2.884-1.37l-.083.144Zm52.706-21.416.141-.048-.3-2.123-.613.3ZM113.019,124a14.665,14.665,0,0,0-1.039,3.71l.194.043ZM74.228,162.489c-.023-1.045-.731-.941-1.279-1.17C72.878,162.319,73.731,162.064,74.228,162.489Zm-1.558.912.086-.179-3.778-1.861-.074.15Zm1.793.061c-.116-1-.888-.76-1.426-1.145C73.155,163.337,73.913,163.121,74.464,163.462Zm43.69-49.949a5.58,5.58,0,0,0-.958,2.229l.239.073Zm-22.391,52.8-.037.374,1.989.1.025-.246Zm17.6-41.774-.19-.045-.868,3.559.15.036Zm-6.614,53.134-.018.166,1.132.477-.132-1.031Zm-2.443-44.638-.155.138,1.979,2.186.156-.139Zm-10.1-.32c.526-1.078.491-1.178-.4-1.319ZM70.268,158.993l-.059.173,2.153.767.088-.261Zm18.615-32.8c-.077-.752-.422-1.015-1.376-1.121Zm63.827,16.3.131.156,2.025-1.523-.119-.159Zm-39.655-19.045.209.075.632-1.985-.166-.054ZM73.44,159.2c-.133-.65-.345-.709-1.147-.235Z" fill="#058f47"/>
    <path id="Path_20" data-name="Path 20" d="M307.682,285.481l2.692,1.238-.1.217-2.69-1.242Z" transform="translate(-214.315 -158.384)" fill="#058f47"/>
    <path id="Path_21" data-name="Path 21" d="M268.726,566.581h-7.578l-.031-.176a3.585,3.585,0,0,1,.85-.194c2.206.037,4.412.1,6.618.159.052,0,.1.055.153.084Z" transform="translate(-174.078 -401.456)" fill="#058f47"/>
    <path id="Path_22" data-name="Path 22" d="M223.644,574.549h-3.765l0-.155h3.77Z" transform="translate(-138.372 -408.542)" fill="#058f47"/>
    <path id="Path_23" data-name="Path 23" d="M219.432,580.76h3.916l.008.084h-3.919C219.435,580.816,219.434,580.788,219.432,580.76Z" transform="translate(-137.985 -414.054)" fill="#058f47"/>
    <path id="Path_24" data-name="Path 24" d="M225.824,568.471h-2.957A3.847,3.847,0,0,1,225.824,568.471Z" transform="translate(-140.959 -403.159)" fill="#058f47"/>
    <path id="Path_25" data-name="Path 25" d="M212.2,540.592l2.67.247-.02.232-2.669-.252Z" transform="translate(-131.704 -379.274)" fill="#058f47"/>
    <path id="Path_26" data-name="Path 26" d="M221.937,562.546l2.512.14-.013.264-2.516-.2Z" transform="translate(-140.138 -398.283)" fill="#058f47"/>
    <path id="Path_27" data-name="Path 27" d="M218.438,546.711l2.09.285-.025.19-2.1-.244Z" transform="translate(-137.098 -384.573)" fill="#058f47"/>
    <path id="Path_28" data-name="Path 28" d="M223.334,557.139l-2.154-.324.028-.193,2.156.28Z" transform="translate(-139.498 -393.154)" fill="#058f47"/>
    <path id="Path_29" data-name="Path 29" d="M367.432,650.076l.047.507-2.737-1.683.077-.143,2.351,1.156Z" transform="translate(-263.803 -472.93)" fill="#058f47"/>
    <path id="Path_30" data-name="Path 30" d="M372.131,648.416l-.263-.163-1.7-1.293.073-.12,2.552,1.606-.071.147Z" transform="translate(-268.501 -471.27)" fill="#058f47"/>
    <path id="Path_31" data-name="Path 31" d="M380.8,648.413l-2.182-1.394.087-.151,2.237,1.287Z" transform="translate(-275.818 -471.294)" fill="#058f47"/>
    <path id="Path_32" data-name="Path 32" d="M495.182,474.982l-4.268,3.62-.194-.232,4.338-3.535Z" transform="translate(-372.882 -322.337)" fill="#058f47"/>
    <path id="Path_33" data-name="Path 33" d="M328.3,619.931l-2.38-.926.056-.162,2.421.813Z" transform="translate(-230.184 -447.028)" fill="#058f47"/>
    <path id="Path_34" data-name="Path 34" d="M338.177,620l-2-.769.05-.142,2.007.7Z" transform="translate(-239.071 -447.242)" fill="#058f47"/>
    <path id="Path_35" data-name="Path 35" d="M686.94,407.22l3.3-1.641.076.147-3.273,1.675Z" transform="translate(-542.78 -262.372)" fill="#058f47"/>
    <path id="Path_36" data-name="Path 36" d="M701.459,406.1l-2.911,1.655-.091-.164,2.892-1.681Z" transform="translate(-552.752 -262.655)" fill="#058f47"/>
    <path id="Path_37" data-name="Path 37" d="M665.869,464.725l2.958-1.739.117.213-3.086,1.513Z" transform="translate(-524.526 -312.079)" fill="#058f47"/>
  </g>
</svg>
