<svg xmlns="http://www.w3.org/2000/svg" width="139.027" height="106.889" viewBox="0 0 139.027 106.889">
  <g id="Group_286" data-name="Group 286" transform="translate(-2021.92 546.7)">
    <path id="Path_38" data-name="Path 38" d="M2057.837-442.039a2.359,2.359,0,0,0-.792-.328q-9.739-.041-19.478-.023a2.21,2.21,0,0,0-1.2.432,2.473,2.473,0,0,1-2.118.33,9.031,9.031,0,0,0-4.262-.049q-2.249.569-4.506,1.1a8.384,8.384,0,0,1-1.054.116l-.051-.2,1.955-.466-.861-3.078.333-.095.736,3.1,3.172-.71,0-.2c-.432,0-.865-.011-1.3,0a.965.965,0,0,1-1.036-.763,11.373,11.373,0,0,1-.655-5.626,9.8,9.8,0,0,0,.2-2.762c-.37-3.579-.772-7.154-1.167-10.731-.14-1.271-.291-2.54-.451-3.934l-.417.622c-.131-1.629-.3-3.067-.354-4.51-.127-3.207-.12-6.422-.32-9.624-.179-2.865-.579-5.716-.853-8.575-.182-1.9-.3-3.805-.486-5.7-.025-.266-.261-.51-.4-.766s-.359-.487-.372-.739c-.087-1.725-.13-3.453-.185-5.18,0-.112.007-.225,0-.337-.034-1.638-.035-1.638.971-2.844-.882-.831-.6-1.945-.668-2.995a71.193,71.193,0,0,1,.572-10.61c.162-1.878.142-3.775.361-5.645.2-1.686.609-3.346.923-5.018a50.452,50.452,0,0,1,.985-5.079c.675-2.27,1.618-4.459,2.381-6.706.368-1.086,1.376-1.64,1.912-2.545a8.408,8.408,0,0,1,3.261-3.033,5.944,5.944,0,0,1,3.119-.895c2.465.051,4.932.016,7.468.016l.149.7c.344,0,.7.008,1.045,0q6.5-.179,13-.355a4.414,4.414,0,0,1,.991.137c.424.087.847.312,1.228-.109a.312.312,0,0,1,.255-.057,1.073,1.073,0,0,0,1.268-.565c.1-.167.478-.222.732-.23q3-.089,5.993-.133a1.318,1.318,0,0,1,1.485,1.362h4.83q15.535.005,31.071.021c1.343,0,2.686.135,4.028.218a.777.777,0,0,0,.816-.367,1.729,1.729,0,0,1,1.133-.675c1.949-.12,3.9-.149,5.857-.19.707-.015,1.016.547,1.339,1.046a1.64,1.64,0,0,1,.13.5c2.122,0,4.205-.005,6.289,0q6,.018,12,.052a3.012,3.012,0,0,0,2.038-.71,2.321,2.321,0,0,1,1.334-.462c1.909-.042,3.819.007,5.729,0a2.743,2.743,0,0,1,1.966.688,25.93,25.93,0,0,1,6.543,8.032c1.048,2.178,2.086,4.365,3.006,6.6a30.571,30.571,0,0,1,1.444,6.62,64.347,64.347,0,0,1,1.069,10.435,3.435,3.435,0,0,0,.046.372c.522-.072.746.179.76.67.053,1.908.126,3.815.167,5.724a5,5,0,0,1-1.276,3.5l.83-.307a3.58,3.58,0,0,1,.127.886q-.256,2.271-.574,4.535c-.356,2.531-.8,5.051-1.088,7.589-.434,3.767-.742,7.548-1.153,11.317-.6,5.51-1.212,11.019-1.888,16.521-.35,2.848-.863,5.676-1.269,8.518-.1.73-.066,1.48-.131,2.218-.115,1.317-.26,2.631-.4,4.01l.548.267-.595.228c-.365,1.738-.7,3.4-1.07,5.065-.151.679-.558.843-1.21.594a1.712,1.712,0,0,0-.6-.058c-2.134,0-4.269.018-6.4.01-.342,0-.8.169-.914-.42-.01-.055-.277-.087-.424-.087q-11.389-.008-22.778,0c-.169,0-.423.013-.495.117-.413.606-1.011.466-1.583.45-1.684-.049-3.368-.083-5.05-.166a3.9,3.9,0,0,1-.927-.353,2.131,2.131,0,0,0-.646-.131c-2.6-.021-5.21-.048-7.815-.04q-17.354.05-34.708.119c-1.662.006-3.326-.019-4.984.07-2.034.109-4.063.322-6.095.487-.2.016-.4,0-.6,0Zm-24.5-38.986.477-.2c.132,1.146.316,2.228.372,3.317.21,4.058.373,8.119.566,12.178.066,1.389.073,2.79.277,4.16.309,2.078.823,4.126,1.137,6.2.187,1.24.159,2.513.227,3.771l-.166.009q-.593-4.086-1.187-8.171l-.055.019c.207,3.231.413,6.461.622,9.732.436-.2.691-.429.941-.424,1.835.035,3.67.169,5.5.172,2.852,0,5.7-.07,8.556-.109.426-.006.851,0,1.277,0,0,.1,0,.192,0,.288-.675.042-1.349.111-2.024.12-4.491.062-8.983.108-13.474.177-.193,0-.383.178-.573.274a3.393,3.393,0,0,0,.574.257,2.217,2.217,0,0,0,.537,0q9.4-.052,18.8-.1c.952-.005,1.29-.25,1.353-1.217a15.064,15.064,0,0,0-.109-2.142c-.353-4.52-.693-9.042-1.073-13.56-.35-4.16-.743-8.317-1.119-12.475-.359-3.977-.733-7.953-1.073-11.931-.09-1.05-.066-2.109-.122-3.163-.023-.427-.067-.8-.717-.791-6.513.068-13.026.1-19.54.145-.235,0-.471.032-.729.051,0,.235-.01.392,0,.547q.38,4.867.766,9.734c.009.111,0,.277.06.32.482.324.239.765.191,1.157-.068.555-.187,1.1-.283,1.662-.023.225-.046.45-.089.867-.781-1.478.343-2.876-.293-4.22-.375.944-.172,6.364.381,7.14Zm99.24,1.816.057.083a3.168,3.168,0,0,1-.569.116c-2.178.047-4.356.084-6.534.122-.237,0-.473,0-.721,0-.063.4-.115.713-.159,1.023-.381,2.642-.717,5.292-1.148,7.926-1.044,6.374-2.118,12.742-2.624,19.188-.034.435,0,.875,0,1.362h.776q10.446.008,20.893.015a7.02,7.02,0,0,0,1.143-.039c.149-.025.265-.249.4-.383-2.261-.136-4.387-.042-6.508-.3a.832.832,0,0,1,.557-.218c1.864.006,3.729-.007,5.592.052.549.017.734-.16.758-.659.033-.673.067-1.347.139-2.016.052-.487.166-.967.252-1.451l.2.016a1.128,1.128,0,0,1,.074.349c-.148,1.314-.315,2.625-.457,3.939a9.684,9.684,0,0,0-.006,1.038,15.434,15.434,0,0,0,1.215-3.669c.54-3.7.964-7.426,1.4-11.145.41-3.5.768-7,1.168-10.5.273-2.384.557-4.767.876-7.145.411-3.044.778-6.1,1.323-9.12.44-2.438,1.188-4.82,1.66-7.255a43.642,43.642,0,0,0,.421-4.42h-24.884c-.2,2.345-.4,4.631-.593,6.94l14.646.276c1.01.019,2.022.073,3.031.039,1.315-.044,2.627-.179,3.942-.234.9-.038,1.8-.007,2.7-.007l.047.181a1.767,1.767,0,0,1-.531.24c-1.471.118-2.943.24-4.417.3-1.1.048-2.2.039-3.3.006-2.329-.07-4.656-.231-6.985-.245-2.155-.013-4.31.126-6.465.178-1.07.026-2.142,0-3.227,0-.138.991-.236,1.837-.38,2.676-.081.474.05.662.545.644,1.234-.044,2.472-.026,3.7-.091,4.844-.256,9.687-.535,14.531-.8a1.149,1.149,0,0,1,.344.094c0,.063,0,.127-.007.19-6.4.548-12.81.9-19.3.964-.439,3.958-.867,7.819-1.3,11.732.259,0,.436,0,.613,0,2.111-.035,4.222-.076,6.333-.1A5.478,5.478,0,0,1,2132.58-479.209Zm-100.944-25.719c.138-.258.379-.509.4-.776.088-1.276.111-2.557.168-3.836.015-.341.071-.68.107-1.019a.627.627,0,0,1,.255.5c-.056,1.435-.128,2.869-.189,4.3a5.383,5.383,0,0,0,.013.994,4.64,4.64,0,0,0,.267.809l-.124.2,7.94.269-.48-.566a12.465,12.465,0,0,1,1.267.006c1.292.148,2.578.425,3.872.463,1.995.059,3.994-.039,5.991-.068.339-.005.679,0,1.018,0l0,.154-.46.1c2.393.133,4.77.155,7.146.121a19.279,19.279,0,0,0,2.458-.267c.2-.029.546-.208.545-.315a3.369,3.369,0,0,0-.235-.987c-.062-.186-.264-.353-.262-.527.015-1.729.056-3.458.1-5.187a2.525,2.525,0,0,1,.146-.56l.191.028v4.919l.542-.034v2.925h16.208c0-.063,0-.127,0-.19l-15.383-.193,0-.326c4.607,0,9.214-.026,13.822.007s9.209.144,13.813.188c4.626.044,9.255-.042,13.878.1,4.585.138,9.167-.346,13.749-.164l.005.36H2114.3c0,.069,0,.138,0,.207,1.343,0,2.685.007,4.027,0,.419,0,.495-.247.433-.641-.246-1.573-.479-3.149-.676-4.729a9.653,9.653,0,0,1-.072-2.078c.022-.231.548-.382.656-.647.1-.248-.082-.6-.073-.9s.153-.6.151-.9a84.726,84.726,0,0,0-.7-11.219,61.476,61.476,0,0,0-3.692-14.906,57.708,57.708,0,0,0-2.67-5.187c-.169-.316-.438-.63-.908-.34,1.271,1.044,4.636,8.89,4.345,10.166a1.445,1.445,0,0,1-.154-.238c-.441-1.174-.838-2.367-1.326-3.522-.759-1.8-1.564-3.574-2.392-5.341a1.017,1.017,0,0,0-.706-.536c-.746-.009-1.493.171-2.239.172q-18.331.01-36.661-.018c-.843,0-1.686-.126-2.539-.194.038-.233.062-.371.06-.364l-1.076-.757c-1.367,3-4.36,14.476-4.282,16.638l1.491-4.227.167.056a2.315,2.315,0,0,1-.045.32,54.231,54.231,0,0,0-1.449,11.194c-.054.767.03,1.544-.034,2.309-.1,1.159-.3,2.309-.393,3.468-.06.707-.011,1.423-.011,2.135l-.187,0c-.119-.531-.238-1.062-.386-1.721a6.531,6.531,0,0,0-.722,3.292h6.947l-5.831-.455c0-.066.009-.132.014-.2l23.332.8a14.631,14.631,0,0,0-2.457-.332c-.85-.058-1.7-.077-2.552-.144-.786-.062-1.569-.165-2.354-.25l.021-.028,17.095.513-4.259.211c0,.058,0,.117,0,.175h24.46q.016.116.032.232a6.323,6.323,0,0,1-.912.192c-1.12.074-2.242.135-3.364.171-2.108.066-4.215.111-6.323.164,0,.072,0,.143.005.215l6.186.2c0,.036,0,.072,0,.108h-19.55l0-.208h9.579c0-.056,0-.112.005-.168-.482-.056-.962-.149-1.445-.164-4.286-.128-8.572-.309-12.859-.348-7.5-.067-15-.039-22.5-.063-1.009,0-2.019-.058-3.026-.122a.753.753,0,0,1-.791-.925c.257-3.717.316-7.456.769-11.148.888-7.235,2.07-14.425,4.885-21.228a1.627,1.627,0,0,0-.011-.616l-.218.016c-.012.165-.023.33-.035.5a4.389,4.389,0,0,0-1.282-.5c-1.074-.047-2.159.113-3.229.035a1.973,1.973,0,0,0-2.119,1.375c-.416.943-.814,1.9-1.175,2.861a59.824,59.824,0,0,0-3.178,12.626c-.783,5.535-1.546,11.069-1.817,16.659-.012.253-.07.5-.107.755l-.284-.04a117.361,117.361,0,0,1,3.631-26.82,100.873,100.873,0,0,1-18.84.24l18.886-.308,2.577-6.566c-.363.048-.64.094-.92.119-.62.057-1.24.138-1.861.144-.717.007-1.437-.116-2.151-.078-2.213.115-4.423.339-6.637.4-1.568.046-3.143-.07-4.71-.178-.274-.019-.527-.357-.93-.65-1.075.156-1.55,1.267-2.241,1.96,3.163,0,6.344.022,9.524-.01,1.481-.015,2.96-.141,4.441-.2a3.573,3.573,0,0,1,.692.105l-.007.207a6.961,6.961,0,0,1-.69.113c-1.075.072-2.151.172-3.228.188-3.654.055-7.309.078-10.963.124a.5.5,0,0,0-.361.2,52.064,52.064,0,0,0-2.878,4.687,26.513,26.513,0,0,0-1.486,4.375,31.722,31.722,0,0,0-1.109,4.546c-.649,4.869-1.185,9.754-1.757,14.633-.066.56-.089,1.125-.135,1.719.362.048.626.109.892.115,1.886.043,3.772.067,5.657.11,3.468.079,6.949-.39,10.4.331a23.587,23.587,0,0,0,2.813.195c.157.013.3.191.449.292-.169.1-.339.294-.508.293-4.806-.013-9.613-.03-14.419-.082-2.035-.022-4.069-.124-6.169-.192-.068,2.04-.138,4.123-.207,6.2-.278-.01-.508,0-.5-.427.057-1.885.068-3.772.108-5.658.041-1.928-.032-3.87.174-5.782.386-3.589.874-7.171,1.435-10.737.629-3.995,1.084-8.061,3.478-11.531,1.041-1.509,2.07-3.026,3.129-4.523a15.213,15.213,0,0,1,1.063-1.211c-1.816,0-3.551-.109-5.263.044a5.663,5.663,0,0,0-2.666.977,16.625,16.625,0,0,0-5.778,8.063,43.166,43.166,0,0,0-2.455,10.658c-.51,5-.861,10.011-1.194,15.023-.122,1.832-.282,3.71.627,5.511.344.036.765.1,1.188.12,1.7.095,3.41.165,5.113.279a2.142,2.142,0,0,1,.7.344l-.08.185C2031.49-503.722,2031.629-503.93,2031.636-504.928Zm29.569,10.8c0,.913-.013,1.738,0,2.562.012.54.072,1.08.1,1.62.011.2-.011.405,0,.606q.234,3.64.477,7.279c.064.941.117,1.884.236,2.819a89.2,89.2,0,0,1,.643,12.1,2.4,2.4,0,0,1-.11.584,3.942,3.942,0,0,0-.3,1.105c.131,2.6.308,5.2.475,7.8.042.653.1,1.305.15,1.958l.159-.015q-.235-4.655-.469-9.31l.273-.019c-.035,2.466.749,4.814.813,7.294s.627,4.917.346,7.348l8.179.49c-.226.127-.279.183-.332.183-2.513-.029-5.027-.044-7.54-.11-.567-.015-.819-.592-.625-1.164a2.012,2.012,0,0,0,.171-.77c-.124-1.389-.284-2.774-.432-4.161a2.533,2.533,0,0,0-.431,1.261c.045,1.322.15,2.643.278,3.96.113,1.166.437,1.426,1.638,1.421,3.188-.014,6.375-.043,9.563-.048q19.173-.028,38.345-.044h1.067c.181-1.759.343-3.4.52-5.04.181-1.673.393-3.343.56-5.018.165-1.653.288-3.31.436-4.964s.307-3.308.458-4.963c.153-1.677.289-3.355.458-5.031.167-1.652.364-3.3.553-4.951s.4-3.3.576-4.949c.179-1.674.263-3.361.509-5.024a30.092,30.092,0,0,1,.725-4.781,8.946,8.946,0,0,1,.11,2.256c-.222,2.346-.491,4.687-.744,7.03-.335,3.1-.7,6.2-1,9.3-.367,3.776-.659,7.56-1.026,11.336-.362,3.729-.779,7.453-1.165,11.181a11.8,11.8,0,0,0-.169,4.2,2.832,2.832,0,0,1-.129,1.248c-.335,1.435-.7,2.864-1.1,4.477,1.964,0,3.886.009,5.806-.018.143,0,.351-.239.412-.409.242-.675.465-1.359.644-2.053.3-1.152.885-2.3.183-3.5a.393.393,0,0,1-.018-.2c.056-1.524.016-3.059.19-4.57.45-3.9.962-7.792,1.511-11.679.706-5,1.507-9.98,2.2-14.978.545-3.91.98-7.835,1.492-11.749a11.626,11.626,0,0,1,.6-2.949,6.087,6.087,0,0,0,.573-2.377c0-.672.106-1.343.123-2.015.023-.909.006-1.819.006-2.845-2.089,0-4.108-.009-6.125.02-.145,0-.383.269-.411.44-.172,1.038-.266,2.089-.445,3.126-.19,1.1-.422,2.2-.686,3.289-.117.486-.349.915-.994.912-1.525-.007-3.051.028-4.576.035-1.674.007-3.348,0-5.022,0,2.221.3,4.511-.194,6.751.937l-19.765-.562c-.131,1.354-.287,2.574-.357,3.8-.092,1.614-.1,3.232-.185,4.847a3.27,3.27,0,0,1-.364.907c.042.184.116.509.185.807l-.882-.379.188-2.764-.091-.007q-.133,1.285-.265,2.57l-.368-.029c.03-3.351.564-6.686.42-10.107-1.525.247-3.112-.207-4.744.245a15.72,15.72,0,0,1-3.756.156,11.96,11.96,0,0,1-1.616-.006c-.436-.05-.86-.345-1.284-.335-1.838.044-3.674.188-5.512.245q-3.568.111-7.14.142C2067.194-494.114,2064.253-494.132,2061.2-494.132Zm-29.553,46.056,0-.236c-.961,0-1.922-.008-2.883,0-.935.01-1.231.344-1.056,1.26.2,1.057.471,2.1.675,3.156a.621.621,0,0,0,.686.571c2.064.1,4.126.229,6.191.31a3.537,3.537,0,0,0,1.812-.167,3.16,3.16,0,0,1,1.713-.4q8.862-.081,17.724-.15c.323,0,.645-.045.99-.071a21.44,21.44,0,0,1-.767-4.353,1.451,1.451,0,0,1,.5.712c.307,1.263.6,2.531.852,3.8.077.382.175.646.615.618,1.567-.1,3.135-.193,4.7-.312.391-.03.524-.231.344-.652a3.985,3.985,0,0,1-.3-1.232c-.116-1.448-.143-2.905-.293-4.349-.233-2.25-.607-4.487-.8-6.74-.438-5.1-.82-10.2-1.189-15.31-.244-3.382-.444-6.768-.635-10.154q-.249-4.436-.428-8.876a21.493,21.493,0,0,0-.1-3.824,21.806,21.806,0,0,1-.332-4.545c-.022-1.114,0-2.23,0-3.333h-6.414c.075,1.982.135,3.889.23,5.794.022.44.019,1.027.283,1.28.668.638.492,1.237.339,2a8.141,8.141,0,0,0,.077,2.345c.609,6.075,1.3,12.142,1.832,18.223.5,5.7.847,11.419,1.255,17.129.1,1.454.106,2.92.306,4.359a8.661,8.661,0,0,1-.372,2.338c-.014.123-.354.286-.548.294-.422.018-.847-.082-1.272-.083q-7.245-.016-14.49-.015c-1.528,0-3.055.009-4.583,0-.364,0-.643.037-.479.589.574-.291.595.185.655.514.2,1.1.375,2.207.536,3.315a6.315,6.315,0,0,1,.007.9l-.275.039c-.319-.68-.668-1.347-.95-2.042a16.548,16.548,0,0,1-.71-4.7c-.4-4-.763-8-1.167-11.992-.416-4.109-.869-8.214-1.3-12.321-.207-1.973-.4-3.948-.592-5.922-.026-.266-.007-.537-.02-.805q-.29-6.259-.587-12.518a2.806,2.806,0,0,0-.118-.859c-.233-.61-.2-.716.478-.738,1.122-.036,2.246-.05,3.368-.062,5.956-.064,11.912-.124,17.8-.185-.048-1.947-.091-3.918-.146-5.889-.029-1.023.237-1.021-1.011-1.024q-13.951-.03-27.9-.046c-.2,0-.392.026-.676.047-.137,1.72-.271,3.406-.406,5.116l.612-.1c-.038.432-.065.81-.1,1.187a1.132,1.132,0,0,0,1.294,1.408q2.659-.11,5.319-.19a7.729,7.729,0,0,1,.866.068l0,.245a45.087,45.087,0,0,1-7.018.494c.136,1.424.283,2.739.384,4.057.261,3.4.667,6.8.708,10.21a90.551,90.551,0,0,0,.963,12.947c.305,1.949.725,3.884.937,5.843.389,3.613.66,7.239.988,10.858.049.546.139,1.088.2,1.592l6.022-.489-.3-2.1.22-.037c.542.6.181,1.413.36,2.113l.479.1.016.131-1,.29.92.2-.02.111-2.275.14a2.558,2.558,0,0,1,1.409,2.523c-.108,1.008-.9,1.536-2.057,1.393a1.361,1.361,0,0,1-1.284-1.639A3.168,3.168,0,0,1,2031.652-448.076Zm121.615-64.6a5.084,5.084,0,0,0-.049-.662c-.625-3.076-1.189-6.166-1.9-9.222a74.465,74.465,0,0,0-3.716-12.409,23.251,23.251,0,0,0-3.518-6.089c-.317-.372-.793-.606-1.135-.962a10.759,10.759,0,0,0-3.676-2.539,2.2,2.2,0,0,1-1.979,1.037q-7.918-.043-15.836-.1c-.746,0-1.493,0-2.338,0,6.343,9.367,7.326,19.807,6.713,30.589a1.784,1.784,0,0,1-.116-.632c-.221-3.943-.318-7.9-.693-11.827a39.3,39.3,0,0,0-4.449-14.785,44.212,44.212,0,0,0-2.979-4.446.978.978,0,0,0-.679-.322c-.679-.034-1.361.009-2.043.012-.929,0-1.859,0-2.969,0,.646.963,1.166,1.867,1.816,2.667a4.927,4.927,0,0,1,1.106,2.034,9.194,9.194,0,0,0,.465,1.467,26.52,26.52,0,0,1,1.509,3.629c.5,2.062.759,4.185,1.122,6.282,0,.029.046.052.07.078l.312-.543c.3,2.271.576,4.355.853,6.439l-.156.026-.2-.779a13.51,13.51,0,0,0,.052,1.482c.095,3.1.171,6.194.272,9.29a1.8,1.8,0,0,0,.25.583c.115-.2.31-.384.334-.591.172-1.512.307-3.027.46-4.541.034-.339.095-.676.143-1.013l.211.026c-.188,2-.376,4-.567,6.036,1.962.1,3.752.229,5.543.265,2.332.047,4.666.018,7,.021q9.327.015,18.654.026c.945,0,1.041-.072.882-1.008-.4-2.341-.854-4.671-1.284-7.006-.053-.286-.087-.575-.129-.862l.17-.028a10.352,10.352,0,0,1,.3,1c.455,2.286.916,4.57,1.328,6.864C2152.518-512.642,2152.686-512.431,2153.266-512.679Zm-92.819,10.154c-.214.208-.271.238-.27.267q.059,3.2.127,6.39c.009.443.269.539.669.535,1.615-.015,3.231,0,4.847,0q12.128,0,24.255,0,14.214-.011,28.429-.04a4.386,4.386,0,0,0,.564-.065c-.412-2.419.615-4.632.561-6.947h-7.445c0,.035,0,.071-.006.106l2.075.37c-1.425.044-2.862.3-4.213-.391a1.946,1.946,0,0,0-.853-.11q-23.782.017-47.563.046c-.211,0-.423.019-.654.031a5.827,5.827,0,0,1,.337,1.479c-.044.971-.228,1.935-.334,2.9-.053.492-.062.989-.09,1.483l-.218,0C2060.6-498.432,2060.525-500.393,2060.448-502.525Zm85.165,54.064-.039-.322,3.752-.182-.008-.154h-3.889c-.137.836-.233,1.7-.43,2.547-.244,1.045-.085,2.209-.964,3.167a6.632,6.632,0,0,0,1.481.379c2.066.022,4.132-.019,6.2-.042.237,0,.473-.035.713-.053.075-.524.125-.992.21-1.454a55.7,55.7,0,0,0,1.29-9.758,2.109,2.109,0,0,1,.028-.268c.545-3.955,1.124-7.9,1.625-11.865.431-3.4.8-6.816,1.144-10.231.357-3.57.6-7.151.98-10.719.379-3.589.858-7.168,1.292-10.751.163-1.35.323-2.7.492-4.119h-5.912c-.283,2.218-.56,4.389-.859,6.732l5.916-.253q.006.149.012.3a24.466,24.466,0,0,1-6.471.368c-.283,1.3-.624,2.558-.823,3.839-.462,2.968-.876,5.945-1.27,8.923q-.684,5.169-1.3,10.347c-.366,3.051-.676,6.11-1.045,9.161q-.472,3.906-1.026,7.8c-.24,1.694-.145,3.466-1.084,5.013-.048.078-.006.209-.006.383l6.4.3-.147.414.869.149C2150.383-447.991,2147.99-448.488,2145.612-448.461Zm-.342-55.73.008.264-5.875.24,0,.05h13.133c-.09-.43-.149-.787-.242-1.134-.069-.256-.269-.5-.262-.748.057-2.04.148-4.08.228-6.09h-26.028c-.035,2.742.141,5.409-.028,8.067l-.349,0q-.114-4.041-.227-8.082c-2.243-.705-4.425-.081-6.612-.309a6.311,6.311,0,0,0-.112.837c.027,2.065.052,4.131.109,6.2.022.787.316,1.026,1.116,1.043.4.008.809,0,1.213.016,1.025.047,2.048.1,3.073.158,0,.053,0,.106,0,.159l-1.553.134,0,.054h15.221l.04-.245a7.345,7.345,0,0,0-1.071-.171c-3.122-.047-6.243-.074-9.365-.113-.342,0-.683-.049-1.025-.074l.011-.253Zm-33.418,55.678-.016-.221h-48.2c.293,1.6.605,3.3.905,4.943h47.8l.148.589.115-.005,1.224-5.509-3.193.74q-.034-.175-.067-.351Zm41.046-63.65c0,.576.036,1.1-.006,1.615-.131,1.608-.3,3.214-.429,4.822a1.389,1.389,0,0,0,.189.627c.082.177.289.323.309.5a.551.551,0,0,0,.617.556c1.048,0,2.1-.014,3.145-.022.269,0,.539,0,.808,0,.016.07.031.14.047.211l-1.312.5h2.358c.117-.495-.065-1.2.761-1.33.048-.008.07-.241.086-.371.116-.958.292-1.914.324-2.874a7.22,7.22,0,0,0-.086-3.171,6.139,6.139,0,0,1-.4-1.933c-.1-1.7-.027-3.42-.2-5.113a54.184,54.184,0,0,0-2.626-12.2,31.686,31.686,0,0,0-8.424-13.415,2.819,2.819,0,0,0-1.849-.846c-1.794-.064-3.588-.141-5.382-.207a2.279,2.279,0,0,0-.4.057,16.675,16.675,0,0,1,2.742,1.871c1.41,1.436,2.9,2.835,3.613,4.836.512,1.43,1.272,2.769,1.839,4.181.493,1.23.872,2.506,1.3,3.762l.093-.026-1.029-3.808.161-.054a1.2,1.2,0,0,1,.164.266c.506,1.694,1.082,3.373,1.484,5.092.305,1.3.338,2.667.582,3.988.692,3.745,1.436,7.481,2.141,11.224.085.451.262.664.737.663q1.347,0,2.693.06c.478.022.954.106,1.43.163A14.015,14.015,0,0,1,2152.9-512.163Zm-9.1,68.859.593-5.357h-4.524l.411.137q-.005.123-.01.247c-.609,0-1.351.215-1.791-.057a2.443,2.443,0,0,0-1.406-.337q-7.678-.03-15.355-.031c-.128,0-.255.021-.383.033l.18.088-1.119,4.714c.253.012.5.033.743.034,3.3.024,6.6.056,9.9.064,4,.011,7.991,0,11.987,0C2143.347-443.765,2143.769-443.887,2143.8-443.3ZM2032.331-511.8c.133-.976.311-1.875.37-2.782a60,60,0,0,1,.929-9.091c.457-2.071.476-4.236.876-6.324a55.744,55.744,0,0,1,1.549-5.97,13.185,13.185,0,0,1,2.527-4.634c1.049-1.246,1.992-2.583,2.977-3.883a2.447,2.447,0,0,0,.188-.356l-.139-.126a11.413,11.413,0,0,0-1.213,1.009,24.34,24.34,0,0,0-5.877,10.677,123.98,123.98,0,0,0-2.568,16.611,46.934,46.934,0,0,0-.027,4.936Zm.31,64.586c-.415-.427-.941-.56-1.305-.216a2.345,2.345,0,0,0-.3,2.211,1.7,1.7,0,0,0,1.91.338,1.236,1.236,0,0,0,.087-1.686l-.362,1.313-.229-.044C2032.5-445.871,2032.562-446.445,2032.641-447.212Zm1.066-29.223-.165.011c-.433,4.232.551,8.369.938,12.545Q2034.094-470.157,2033.708-476.435Zm29.069-45.275.219.017c.073.2.243.419.2.591-.173.739-.419,1.461-.616,2.194-.108.4-.173.818-.258,1.228l.134.026.421-.99.217.071q-.474,1.653-.949,3.305c1.071-1.586,1.676-5.841,1.317-8.418Zm-15.233,10.218,0-.059h-9.73v.059Zm-15.522,18.116c.152,2.584.305,5.169.461,7.8C2032.889-486.606,2032.757-489.238,2032.021-493.376Zm-8.048-10.511c.149.855,1.653.905,4.107.235Zm37.334,21.085-.189.011q.247,3.962.493,7.923l.169-.01Q2061.545-478.84,2061.308-482.8Zm2.458-43.548-.892,2.62C2063.338-524.486,2064.225-525.086,2063.766-526.35Zm36.96,23.161,0,.026h3.664l0-.026Zm-37.469-23.24.3.13.682-1.884-.29-.108Zm31.788,35.881-.167.008q-.163,1.14-.326,2.28l.287.031Zm.12-2.094h.131v-1.628l-.131,0Z" transform="translate(0)" fill="#ffc42e"/>
    <path id="Path_39" data-name="Path 39" d="M2494.363,233.24c.018.183.037.383.058.607-.091.029-.193.1-.251.074-1.518-.684-3.09-.287-4.606-.108a21.69,21.69,0,0,1-2.927-.115c-4.466-.054-8.932-.13-13.4-.2-.216,0-.432,0-.648,0-.009-.058-.019-.115-.027-.173a2.046,2.046,0,0,1,.508-.125c4.645.07,9.293.056,13.932.268,2.162.1,4.3-.062,6.448-.093A6.5,6.5,0,0,0,2494.363,233.24Z" transform="translate(-389.896 -674.773)" fill="#ffc42e"/>
    <path id="Path_40" data-name="Path 40" d="M2743.879,233.611l-21.572.282C2722.863,233.471,2741.406,233.223,2743.879,233.611Z" transform="translate(-605.975 -674.958)" fill="#ffc42e"/>
    <path id="Path_41" data-name="Path 41" d="M2139.947,235.466h14.928v.061l-14.933.234C2139.944,235.662,2139.945,235.564,2139.947,235.466Z" transform="translate(-102.113 -676.731)" fill="#ffc42e"/>
    <path id="Path_42" data-name="Path 42" d="M2993.35,223.671c-.413-1.312.826-.895,1.205-1.327-.28-.492-.28-.492-.772-.123a3.571,3.571,0,0,1-.115-.848c.008-.108.33-.308.447-.271a5.581,5.581,0,0,1,1.5.749l-.667.188c.235.943-.654.762-1.146,1.03.22.957-.546,1.436-2.121,1.183Z" transform="translate(-839.041 -664.3)" fill="#ffc42e"/>
    <path id="Path_43" data-name="Path 43" d="M2348.873,231.9l-2.071,1.481-.146-.106.63-.874H2336.18c0-.046,0-.093,0-.139,1.208,0,2.416.013,3.624,0,2.423-.032,4.846-.063,7.268-.136a11.8,11.8,0,0,0,1.732-.305Z" transform="translate(-271.896 -673.577)" fill="#ffc42e"/>
    <path id="Path_44" data-name="Path 44" d="M2081.615,239.539l8.354-.217.006.16-8.349.36Z" transform="translate(-51.648 -680.067)" fill="#ffc42e"/>
    <path id="Path_45" data-name="Path 45" d="M2037.054,203.333l-1.355,1.679.981,1.158-.08.107-1.369-.984-.444.323c.56-.8,1.075-1.562,1.625-2.3.086-.116.327-.117.5-.171Z" transform="translate(-11.132 -648.768)" fill="#ffc42e"/>
    <path id="Path_46" data-name="Path 46" d="M2923.419,235.753l7.1-.314c0,.053,0,.106.006.159l-7.109.322Z" transform="translate(-779.973 -676.707)" fill="#ffc42e"/>
    <path id="Path_47" data-name="Path 47" d="M2169.428,239.964h-2.976l0-.218c.981-.466,1.978.065,2.966.052Z" transform="translate(-125.048 -680.268)" fill="#ffc42e"/>
    <path id="Path_48" data-name="Path 48" d="M2655.866,242.234l2.889.255c-.984.18-1.975.533-2.926.024C2655.841,242.42,2655.854,242.327,2655.866,242.234Z" transform="translate(-548.459 -682.586)" fill="#ffc42e"/>
    <path id="Path_49" data-name="Path 49" d="M2664.5,233.079l4.326.238c-.26.191-.4.386-.52.37-1.28-.177-2.554-.386-3.831-.587Z" transform="translate(-555.938 -674.665)" fill="#ffc42e"/>
    <path id="Path_50" data-name="Path 50" d="M2436.761,233.726l1.47-1.4C2438.079,233.069,2437.358,233.8,2436.761,233.726Z" transform="translate(-358.921 -674.013)" fill="#ffc42e"/>
    <path id="Path_51" data-name="Path 51" d="M2262.712,236.31h-2.854l.009-.211Z" transform="translate(-205.864 -677.278)" fill="#ffc42e"/>
    <path id="Path_52" data-name="Path 52" d="M2302.3,237.522l2.325.274-.027.23-2.315-.31C2302.288,237.651,2302.293,237.587,2302.3,237.522Z" transform="translate(-242.569 -678.51)" fill="#ffc42e"/>
    <path id="Path_53" data-name="Path 53" d="M2149.544-285.888h-9.732v-.059h9.73Z" transform="translate(-102 -225.604)" fill="#ffc42e"/>
    <path id="Path_54" data-name="Path 54" d="M2312.91-72.676l.474,7.924-.169.01q-.246-3.962-.493-7.923Z" transform="translate(-251.601 -410.126)" fill="#ffc42e"/>
    <path id="Path_55" data-name="Path 55" d="M2606.54-223.914h3.661l0,.026h-3.664Z" transform="translate(-505.814 -279.275)" fill="#ffc42e"/>
    <path id="Path_56" data-name="Path 56" d="M2561.235-130.134l-.205,2.32-.287-.031.326-2.28Z" transform="translate(-466.189 -360.413)" fill="#ffc42e"/>
    <path id="Path_57" data-name="Path 57" d="M2565.289-156.122v-1.627h.131v1.628Z" transform="translate(-470.124 -336.52)" fill="#ffc42e"/>
    <path id="Path_58" data-name="Path 58" d="M2394.09-373.931a2.919,2.919,0,0,1-.8.23c-2.9-.019-5.793-.1-8.689-.09q-18.557.092-37.113.228c-1.078.007-2.156-.005-3.234-.024a7.586,7.586,0,0,1-.847-.107l-.027-.216a5.024,5.024,0,0,1,.819-.148q3.6-.063,7.207-.1c10.395-.1,20.79-.231,31.185-.3,3.629-.023,7.26.108,10.89.172a4.809,4.809,0,0,1,.523.065Q2394.049-374.073,2394.09-373.931Z" transform="translate(-278.13 -149.027)" fill="#ffc42e"/>
    <path id="Path_59" data-name="Path 59" d="M2359.77-470.363a2.816,2.816,0,0,1,.687-.153q10.571.325,21.142.67c5.163.166,10.325.344,15.488.5,2.132.062,4.265.065,6.4.1.21,0,.42.046.631.071l.031.207a2.153,2.153,0,0,1-.595.17c-4.4-.063-8.8-.122-13.2-.216-4.513-.1-9.027-.2-13.538-.355-5.5-.187-10.993-.429-16.489-.652a3.527,3.527,0,0,1-.506-.093Z" transform="translate(-292.308 -65.914)" fill="#ffc42e"/>
    <path id="Path_60" data-name="Path 60" d="M2397.141-515.162l-1.848.186c0,.028,0,.055,0,.083h10.966c0,.063,0,.125,0,.188-3.333.251-6.676.241-10.017.261s-6.691.024-10.037.016c-3.368-.008-6.737-.038-10.1-.06-3.3-.021-6.606.015-9.9-.217,0-.089.008-.179.012-.268h27.241c.341-.18.546-.378.758-.385.962-.034,1.927-.015,2.89-.015C2397.12-515.3,2397.13-515.233,2397.141-515.162Z" transform="translate(-297.878 -27.099)" fill="#ffc42e"/>
    <path id="Path_61" data-name="Path 61" d="M2360.456-450.3c1.485-.149,2.968-.317,4.456-.442,4.406-.371,8.813-.717,13.218-1.1a7.63,7.63,0,0,0,1.313-.348l.058-.294a6.355,6.355,0,0,0-1.436-.837,65.443,65.443,0,0,0-7.355-1.835c-4.853-.734-9.745-1.212-14.618-1.817-1.467-.182-2.928-.422-4.388-.656a5.7,5.7,0,0,1-.86-.277c0-.063-.006-.126-.01-.189.151-.045.313-.148.454-.125,2.028.324,4.042.775,6.082.983,6.428.655,12.855,1.3,19.119,2.978a14,14,0,0,1,2.557,1.011,1.305,1.305,0,0,1,.645.9c.016.2-.477.59-.785.642-1.567.265-3.143.522-4.726.646-4.56.358-9.125.651-13.688.969C2360.479-450.164,2360.468-450.234,2360.456-450.3Z" transform="translate(-284.577 -76.551)" fill="#ffc42e"/>
    <path id="Path_62" data-name="Path 62" d="M2337.9-350.482a4,4,0,0,1,.908-.14c1.987.148,3.971.46,5.958.47,9.723.047,19.447.008,29.17.019,2.062,0,4.123.083,6.184.128l.018.225c-.189.016-.378.047-.568.047q-8.521,0-17.042,0c-6.446,0-12.891.029-19.336-.009-1.588-.009-3.176-.223-4.763-.35a2.946,2.946,0,0,1-.5-.127Q2337.921-350.35,2337.9-350.482Z" transform="translate(-273.389 -169.644)" fill="#ffc42e"/>
    <path id="Path_63" data-name="Path 63" d="M2421.117-498.44c-3.5.807-34.155.043-35.762-.937C2397.357-498.473,2409.251-498.984,2421.117-498.44Z" transform="translate(-314.444 -40.944)" fill="#ffc42e"/>
    <path id="Path_64" data-name="Path 64" d="M2356.053-315.645h39.754l.007.04c-1.6.118-3.192.329-4.79.338q-17,.1-34,.12a5.352,5.352,0,0,1-1.022-.2Z" transform="translate(-289.046 -199.909)" fill="#ffc42e"/>
    <path id="Path_65" data-name="Path 65" d="M2117.06-370.5l19.225-.6.052.184a2.329,2.329,0,0,1-.659.244c-4.076.181-8.152.363-12.229.5-1.881.065-3.765.046-5.647.052a4.95,4.95,0,0,1-.771-.117Z" transform="translate(-82.291 -151.934)" fill="#ffc42e"/>
    <path id="Path_66" data-name="Path 66" d="M2604.332-404.466c-.375-.454-.124-.813.068-1.135a4.805,4.805,0,0,1,3.635-2.394,20.762,20.762,0,0,1,6.372.113c1.013.182,2.034.32,3.06.555h-1.28c.559.991.425,1.48-.544,1.893a8.783,8.783,0,0,1-5.358.336c-1.032-.217-1.193-.993-.423-1.728.345-.33.776-.57,1.137-.917C2608.3-407.683,2605.494-407.854,2604.332-404.466Zm9.285-2.993a3.593,3.593,0,0,0-3.261.638c-.242.186-.544.534-.513.766s.449.528.717.55a26.714,26.714,0,0,0,3.476.1,5.57,5.57,0,0,0,1.781-.546.674.674,0,0,0,.272-.6,1.9,1.9,0,0,0-2.553-.45c-.025.022-.079.01-.154.017Z" transform="translate(-503.735 -119.842)" fill="#ffc42e"/>
    <path id="Path_67" data-name="Path 67" d="M2137.573-311.622c-1.025,0-2.049.017-3.074,0-3.48-.068-6.96-.126-10.439-.24a13.689,13.689,0,0,1-2.377-.412,2.662,2.662,0,0,1-.664-.359l.04-.278a4.8,4.8,0,0,1,.942-.019,21.792,21.792,0,0,0,2.805.533c3.747.14,7.5.187,11.244.281.516.013,1.031.094,1.546.143Q2137.585-311.8,2137.573-311.622Z" transform="translate(-85.74 -202.237)" fill="#ffc42e"/>
    <path id="Path_68" data-name="Path 68" d="M2132.3-467.747l18.355-.291.1.226c-.2.115-.4.329-.6.331q-8.571.093-17.142.142a4.314,4.314,0,0,1-.742-.122Z" transform="translate(-95.471 -68.058)" fill="#ffc42e"/>
    <path id="Path_69" data-name="Path 69" d="M2403.812-522.976a131.884,131.884,0,0,1-19.546-.655,3.456,3.456,0,0,1,.694-.11c2.04.086,4.079.22,6.119.279,3.927.115,7.855.19,11.784.28.319.007.64,0,.959,0C2403.819-523.112,2403.815-523.044,2403.812-522.976Z" transform="translate(-313.502 -19.863)" fill="#ffc42e"/>
    <path id="Path_70" data-name="Path 70" d="M2352.318-432.8c2.77-.552,5.6-.747,8.332-1.47q.019-.128.039-.255a12.309,12.309,0,0,0-1.988-.586c-2.511-.312-5.03-.557-7.547-.819-.959-.1-1.921-.166-2.878-.276a4.76,4.76,0,0,1-.826-.247q.011-.084.021-.169c.11-.04.225-.124.329-.113,1.977.216,3.952.45,5.929.666a25.737,25.737,0,0,1,6.289.962,4.773,4.773,0,0,1,1.013.715,3.725,3.725,0,0,1-1.1.621c-1.876.308-3.763.548-5.649.795C2353.633-432.888,2352.974-432.855,2352.318-432.8Z" transform="translate(-281.648 -95.142)" fill="#ffc42e"/>
    <path id="Path_71" data-name="Path 71" d="M2713.869-451.245a49.606,49.606,0,0,1,2.156,17.391c.075-5.9-1.227-11.613-2.481-17.332Z" transform="translate(-598.394 -82.588)" fill="#ffc42e"/>
    <path id="Path_72" data-name="Path 72" d="M2155.173-264.4a4.543,4.543,0,0,1-.469,0c-1.039-.108-1.668-.607-1.725-1.372a2.207,2.207,0,0,1,1.422-2.506,2.775,2.775,0,0,1,2.253-.005,1.854,1.854,0,0,1,1.174,1.859,2.333,2.333,0,0,1-1.658,1.919c-.323.082-.659.106-.99.157Zm-1.165-2.464c.114.783.376,1.288,1.066,1.345a7.026,7.026,0,0,0,1.6,0,.9.9,0,0,0,.619-.552,1.434,1.434,0,0,0-.117-1.1c-1.171-1.306-2.222-1.337-3.506-.2a1.831,1.831,0,0,0,0,2.054,2.67,2.67,0,0,0,2.767.259C2154.188-264.939,2153.367-265.469,2154.008-266.861Z" transform="translate(-113.383 -240.676)" fill="#ffc42e"/>
    <path id="Path_73" data-name="Path 73" d="M2458.154-477.157l22.512.347C2473.161-476.694,2465.652-476.344,2458.154-477.157Z" transform="translate(-377.43 -60.169)" fill="#ffc42e"/>
    <path id="Path_74" data-name="Path 74" d="M2279.437-384.807c-.663,0-1.407,0-1.732-.645a1.807,1.807,0,0,1,.465-1.983,5.213,5.213,0,0,1,.7-.722,1.865,1.865,0,0,1,2.225-.356,2.076,2.076,0,0,1,.656,2.3C2281.493-385.25,2280.742-384.794,2279.437-384.807Zm1.658-2.156c-.093.712-.215.817-1.916,1.7a5.141,5.141,0,0,0,1.348-.117c.7-.2.907-.781.74-1.853a1.042,1.042,0,0,0-1.1-.966,1.738,1.738,0,0,0-1.722,1.329,1.192,1.192,0,0,0,.154,1.015,1.135,1.135,0,0,0,1.016-.02A11.813,11.813,0,0,0,2281.095-386.964Z" transform="translate(-221.178 -136.663)" fill="#ffc42e"/>
    <path id="Path_75" data-name="Path 75" d="M2276.721-273.782a2.29,2.29,0,0,1-1.516,2.249,1.868,1.868,0,0,1-2.082-.553,2.278,2.278,0,0,1-.1-2.366,2.761,2.761,0,0,1,2.357-1.531c.7-.114.957.49,1.144,1.018A6.667,6.667,0,0,1,2276.721-273.782Zm-.764,1.091c-1.946.088-2.318-.064-2.362-.964.042-.01.095-.041.125-.026a.554.554,0,0,1,.212.145,1.787,1.787,0,0,0,1.834.531c.144-.014.4-.25.381-.351a7.629,7.629,0,0,0-.42-1.852,1.006,1.006,0,0,0-.919-.31,2.369,2.369,0,0,0-1.162.783,2.8,2.8,0,0,0-.373,1.318,1.356,1.356,0,0,0,1.026,1.457A1.315,1.315,0,0,0,2275.957-272.692Z" transform="translate(-217.01 -234.211)" fill="#ffc42e"/>
    <path id="Path_76" data-name="Path 76" d="M2368.224-270.837c1.533-.161,2.033,1.469,1.508,2.593a2.815,2.815,0,0,1-3.387,1.33,1.578,1.578,0,0,1-.875-1.653C2365.608-270.087,2366.5-270.82,2368.224-270.837Zm-1.491,2.2a9.8,9.8,0,0,0,1.569.5c1.045.148,1.433-.391,1.052-1.408a2.55,2.55,0,0,0-.446-.648c-.562-.7-1.21-.253-1.819-.107a1.524,1.524,0,0,0-1.166,1.538c-.039.558,0,1.082.619,1.35a2.063,2.063,0,0,0,2.092-.283C2366.859-267.8,2366.495-268.01,2366.733-268.641Z" transform="translate(-297.233 -238.667)" fill="#ffc42e"/>
    <path id="Path_77" data-name="Path 77" d="M2293.2-474.259a9.809,9.809,0,0,1-1.49-.407.976.976,0,0,1-.5-1.454c.339-.712.87-1.409,1.646-1.442a3.593,3.593,0,0,1,2.707.747,1.338,1.338,0,0,1-.555,2.024A11.591,11.591,0,0,1,2293.2-474.259Zm1.29-.848.187.16c.233-.329.657-.667.643-.985a1.168,1.168,0,0,0-.749-.855,8.761,8.761,0,0,0-2.3.078.8.8,0,0,0-.646,1.067,1.289,1.289,0,0,0,.891.707,1.992,1.992,0,0,0,2.11-1.086c.058-.1.231-.142.351-.21.027.157.126.357.064.462A4.712,4.712,0,0,1,2294.487-475.107Z" transform="translate(-232.859 -59.811)" fill="#ffc42e"/>
    <path id="Path_78" data-name="Path 78" d="M2497.03-270.851c-1.076-.027-1.827-.642-1.814-1.486a2.414,2.414,0,0,1,2.2-2.307,2.089,2.089,0,0,1,1.732,2.074C2499.121-271.491,2498.293-270.82,2497.03-270.851Zm-.1-2.759c-.224-.073-.5-.256-.619-.184a1.46,1.46,0,0,0-.6,1.5l.425-.342c.143.156.235.35.363.377a10.244,10.244,0,0,0,1.715.253c.145.006.43-.326.433-.506a1.906,1.906,0,0,0-1.722-1.688Zm1.417,1.833h-2.312A1.831,1.831,0,0,0,2498.35-271.778Z" transform="translate(-409.496 -235.382)" fill="#ffc42e"/>
    <path id="Path_79" data-name="Path 79" d="M2131.4-352.436l17.026-.888.012.218c-5.67.355-11.323.986-17.015.952Z" transform="translate(-94.72 -167.309)" fill="#ffc42e"/>
    <path id="Path_80" data-name="Path 80" d="M2649.6-266.24c-.17.094-.389.205-.6.332a1.968,1.968,0,0,1-2.594-.409,2.2,2.2,0,0,1,.583-2.658,2.121,2.121,0,0,1,1.964-.379c.914.311,1.193,1.036.916,2.142C2649.794-266.915,2649.7-266.623,2649.6-266.24Zm-1.882-1.088a1.062,1.062,0,0,0,.131.144c.336.255.675.507,1.012.76.189-.354.379-.708.564-1.065a.335.335,0,0,0,.014-.132,1.14,1.14,0,0,0-.739-1.286,1.428,1.428,0,0,0-1.736.479,1.37,1.37,0,0,0-.182,1.677,1.321,1.321,0,0,0,1.516.541C2647.453-266.6,2647.382-266.737,2647.715-267.328Z" transform="translate(-540.105 -239.871)" fill="#ffc42e"/>
    <path id="Path_81" data-name="Path 81" d="M2313.641-532.624a6.232,6.232,0,0,1-1.232-.235c-.551-.222-.635-.658-.309-1.142a3.259,3.259,0,0,1,3.4-1.233,1.122,1.122,0,0,1,.685.71,1.645,1.645,0,0,1-.308,1.144A2.733,2.733,0,0,1,2313.641-532.624Zm2.1-1.76-1.267,1.02a5.85,5.85,0,0,1,.54-.871,1.713,1.713,0,0,0,.063-.656,4.588,4.588,0,0,0-.675.007,1.839,1.839,0,0,0-.553.193,6.045,6.045,0,0,0-1.146.651c-.372.312-.287.7.209.743a9.109,9.109,0,0,0,2.122-.074A.827.827,0,0,0,2315.736-534.385Z" transform="translate(-250.899 -9.824)" fill="#ffc42e"/>
    <path id="Path_82" data-name="Path 82" d="M2587.412-293.514l16.811-.273a125.626,125.626,0,0,1-16.817.455Z" transform="translate(-489.259 -218.82)" fill="#ffc42e"/>
    <path id="Path_83" data-name="Path 83" d="M2135.068-403.3l13.595-.748A56.568,56.568,0,0,1,2135.068-403.3Z" transform="translate(-97.896 -123.423)" fill="#ffc42e"/>
    <path id="Path_84" data-name="Path 84" d="M2174.679-393.1a4.1,4.1,0,0,1-.866.334c-1.861.269-3.719.572-5.59.741-2.56.232-5.13.356-7.7.468C2165.2-392.2,2169.94-392.34,2174.679-393.1Z" transform="translate(-119.918 -132.895)" fill="#ffc42e"/>
    <path id="Path_85" data-name="Path 85" d="M2255.3-270.364c-.484,0-.971-.025-1.454.006-.576.038-.815-.214-.832-.775-.036-1.234-.083-2.467-.151-3.7-.032-.577-.158-1.151-.171-1.727,0-.2.205-.407.317-.61l.251.088c.048.73.112,1.46.139,2.191.039,1.077.079,2.155.065,3.232-.008.6.255.836.818.876a10.239,10.239,0,0,1,1.037.177Z" transform="translate(-199.665 -233.198)" fill="#ffc42e"/>
    <path id="Path_86" data-name="Path 86" d="M2206.441-342.094c-1.016,0-2.033-.019-3.048.005a7.426,7.426,0,0,0-3.144.586,9.179,9.179,0,0,0,3.372.944l-.052.272c-1.116-.19-2.244-.327-3.341-.594-.5-.122-.506-.716-.031-.961a3.948,3.948,0,0,1,1.381-.489c1.424-.131,2.855-.181,4.285-.243a2.442,2.442,0,0,1,.614.133Z" transform="translate(-153.943 -176.61)" fill="#ffc42e"/>
    <path id="Path_87" data-name="Path 87" d="M2596.787-447.642c3.736,1.628,7.644,1.435,11.483,1.727C2604.214-445.545,2597.639-446.1,2596.787-447.642Z" transform="translate(-497.375 -85.705)" fill="#ffc42e"/>
    <path id="Path_88" data-name="Path 88" d="M2271.8-294.911h-6.063l-.036-.272,1.659-.264a10.767,10.767,0,0,1-1.374-.286c-.329-.117-.9-.009-.848-.746,2.136,1.046,4.436,1.054,6.674,1.356C2271.811-295.052,2271.806-294.982,2271.8-294.911Z" transform="translate(-210.432 -216.491)" fill="#ffc42e"/>
    <path id="Path_89" data-name="Path 89" d="M2138.106-453.656l14.332.427q0,.13-.008.26l-14.3-.408Q2138.118-453.517,2138.106-453.656Z" transform="translate(-100.524 -80.502)" fill="#ffc42e"/>
    <path id="Path_90" data-name="Path 90" d="M2175.521-506.845l11.386.453c-1.573.373-10.183.167-11.409-.271Z" transform="translate(-132.876 -34.482)" fill="#ffc42e"/>
    <path id="Path_91" data-name="Path 91" d="M2134.8-436.835c4.425-.276,8.854-.256,13.284-.178,0,.059,0,.119,0,.178Z" transform="translate(-97.665 -94.857)" fill="#ffc42e"/>
    <path id="Path_92" data-name="Path 92" d="M2317.574-435c-.024-3.009-.172-6.037,1.348-8.805C2317.846-440.97,2317.884-437.958,2317.574-435Z" transform="translate(-255.787 -89.023)" fill="#ffc42e"/>
    <path id="Path_93" data-name="Path 93" d="M2347.558-521.146a51.138,51.138,0,0,1,2.505-10.064Q2348.81-526.178,2347.558-521.146Z" transform="translate(-281.742 -13.402)" fill="#ffc42e"/>
    <path id="Path_94" data-name="Path 94" d="M2676.2-332.957l6.644-.416.06.21c-.132.086-.26.242-.4.247-2.1.089-4.2.158-6.294.231Z" transform="translate(-566.086 -184.571)" fill="#ffc42e"/>
    <path id="Path_95" data-name="Path 95" d="M2479.987-391.454c-1.812.959-3.38-.073-4.986-.229C2475.491-392.072,2479.094-391.97,2479.987-391.454Zm-1.365.04v-.108h-1.809v.108Z" transform="translate(-392.006 -133.916)" fill="#ffc42e"/>
    <path id="Path_96" data-name="Path 96" d="M2338.075-525.688,2336.133-519l-.159-.044a52.838,52.838,0,0,1,1.823-6.721Z" transform="translate(-271.72 -18.112)" fill="#ffc42e"/>
    <path id="Path_97" data-name="Path 97" d="M2189.359-273.184c-2.471-.024-4.913.872-7.4.171l7.4-.36Z" transform="translate(-138.463 -236.483)" fill="#ffc42e"/>
    <path id="Path_98" data-name="Path 98" d="M2424.619-331.142l7.672.263A27.637,27.637,0,0,1,2424.619-331.142Z" transform="translate(-348.416 -186.501)" fill="#ffc42e"/>
    <path id="Path_99" data-name="Path 99" d="M2311.569-351.941q-.286,2.441-.573,4.881l-.245-.027.483-4.879Z" transform="translate(-249.897 -168.484)" fill="#ffc42e"/>
    <path id="Path_100" data-name="Path 100" d="M2334.044-279.543l5.555.31h-5.56Q2334.041-279.388,2334.044-279.543Z" transform="translate(-270.045 -231.144)" fill="#ffc42e"/>
    <path id="Path_101" data-name="Path 101" d="M2670.725-476.147c-1.137.448-2.307-.183-3.45.052q0-.1-.006-.2l3.448-.163Z" transform="translate(-558.356 -60.772)" fill="#ffc42e"/>
    <path id="Path_102" data-name="Path 102" d="M2430.291-276.236l4.167-.317.012.206C2433.065-276.386,2431.707-275.746,2430.291-276.236Z" transform="translate(-353.323 -233.731)" fill="#ffc42e"/>
    <path id="Path_103" data-name="Path 103" d="M2696.372-314.588c-1.252.873-2.7.665-4.092.726Z" transform="translate(-579.996 -200.823)" fill="#ffc42e"/>
    <path id="Path_104" data-name="Path 104" d="M2696.115-354.843a18.356,18.356,0,0,1-1.878-.171c-.186-.034-.319-.356-.578-.669l2.48.69Z" transform="translate(-581.189 -165.269)" fill="#ffc42e"/>
    <path id="Path_105" data-name="Path 105" d="M2322.357-272.406v-3.324l.1,0v3.323Z" transform="translate(-259.938 -234.443)" fill="#ffc42e"/>
    <path id="Path_106" data-name="Path 106" d="M2270.774-336.658q.208-1.393.417-2.786l.229.035-.5,2.773Z" transform="translate(-215.309 -179.318)" fill="#ffc42e"/>
    <path id="Path_107" data-name="Path 107" d="M2111.318-272.945h-1.565v-.2h1.556Z" transform="translate(-75.993 -236.682)" fill="#ffc42e"/>
    <path id="Path_108" data-name="Path 108" d="M2730.29-303.646l-.154-1.422.327-.033q.052.711.1,1.423Z" transform="translate(-612.749 -209.032)" fill="#ffc42e"/>
    <path id="Path_109" data-name="Path 109" d="M2393.883,81.829a33.008,33.008,0,0,1-3.311.312c-9.658-.028-19.317-.036-28.974-.171-4.622-.065-9.241-.39-13.861-.6a5.883,5.883,0,0,1-.748-.149C2347.221,81.126,2393.832,81.8,2393.883,81.829Z" transform="translate(-281.251 -543.268)" fill="#ffc42e"/>
    <path id="Path_110" data-name="Path 110" d="M2372.805-29.784c-1.664.639-45.61.935-48.065.265a4.611,4.611,0,0,1,.781-.123c2.448.029,4.9.116,7.343.1,7.86-.044,15.719-.132,23.579-.185,5.276-.036,10.552-.041,15.828-.06Z" transform="translate(-262 -447.236)" fill="#ffc42e"/>
    <path id="Path_111" data-name="Path 111" d="M2461.912-148.056v-.894c-.547.2-.653-.069-.712-.51-.086-.639-.308-1.261-.373-1.9a17.7,17.7,0,0,1,.019-1.823c.005-1.347.033-2.7-.011-4.042a1.312,1.312,0,0,1,.872-1.417c.863.752.65,1.729.567,2.681-.169,1.943-.327,3.887-.505,5.829-.045.487.426.77.489,1.062.161.742.657.537,1.027.543,3.008.045,6.017.073,9.025.057.582,0,1.162-.218,1.651.46a2.4,2.4,0,0,1-.665.2q-5.451-.063-10.9-.158A2.9,2.9,0,0,1,2461.912-148.056Z" transform="translate(-379.723 -335.748)" fill="#ffc42e"/>
    <path id="Path_112" data-name="Path 112" d="M2504.194-134.843a5.047,5.047,0,0,0-.794-.1c-.6.016-1.2.087-1.807.1-.472.013-.666-.278-.541-.7.17-.576.434-1.125.6-1.7a1.407,1.407,0,0,0-.008-.857,2.171,2.171,0,0,1,.708-2.673,1.977,1.977,0,0,1,1.5.008.983.983,0,0,1,.486,1.377c-.749,1.245-.238,2.408.01,3.611a7.092,7.092,0,0,1,.065,1.042Zm-2.694-.625h2.333C2503.592-135.946,2502.3-135.922,2501.5-135.469Z" transform="translate(-414.514 -351.082)" fill="#ffc42e"/>
    <path id="Path_113" data-name="Path 113" d="M2357.9-62.666c14.111.615,28.181.758,42.247,1.07C2397.042-60.965,2358.857-61.951,2357.9-62.666Z" transform="translate(-290.69 -418.787)" fill="#ffc42e"/>
    <path id="Path_114" data-name="Path 114" d="M2382.6,104.314c-.859.069-1.718.158-2.578.2-5.987.311-11.972.641-17.961.907a50.464,50.464,0,0,1-9.407-.32,1.325,1.325,0,0,1-.606-.218c10.209.8,20.354-.636,30.53-.772Z" transform="translate(-285.629 -563.085)" fill="#ffc42e"/>
    <path id="Path_115" data-name="Path 115" d="M2401.457,131.15c-10.261,1.2-20.483,2.882-30.871,2.687C2380.942,133.682,2391.155,131.94,2401.457,131.15Z" transform="translate(-301.666 -586.476)" fill="#ffc42e"/>
    <path id="Path_116" data-name="Path 116" d="M2463.26,4.828c2.083.485,4.238.7,6.182,1.71a2.541,2.541,0,0,1,.6.422c.568.555.516,1.243-.22,1.508a21.47,21.47,0,0,1-3.54.983,115.391,115.391,0,0,1-14.133,1.24q-2.754.141-5.509.274-.008-.093-.015-.186c1.482-.122,2.963-.259,4.446-.362,4.051-.283,8.108-.486,12.15-.857a50.06,50.06,0,0,0,5.746-1.038c.4-.085.738-.49,1.1-.747-.324-.341-.59-.854-.985-.991-1.5-.517-3.038-.912-4.562-1.353-.442-.128-.883-.259-1.325-.388Z" transform="translate(-367.458 -477.182)" fill="#ffc42e"/>
    <ellipse id="Ellipse_2" data-name="Ellipse 2" cx="22.663" cy="0.119" rx="22.663" ry="0.119" transform="translate(2057.382 -472.951)" fill="#ffc42e"/>
    <path id="Path_117" data-name="Path 117" d="M2573.915-139.131a4.114,4.114,0,0,1,.762-.158c2.983-.057,5.967-.085,8.95-.15,2.758-.061,5.514-.16,8.271-.239a3.251,3.251,0,0,1,1.226.146c-6.375.658-12.77.57-19.158.691Q2573.941-138.986,2573.915-139.131Z" transform="translate(-477.587 -352.152)" fill="#ffc42e"/>
    <path id="Path_118" data-name="Path 118" d="M2733.864-14.4v1.2l1.857-.752.1.193-.375.341a1.885,1.885,0,0,1,.338.02c.285.073.652.075.833.257a2.6,2.6,0,0,1,.226,2.6,2.417,2.417,0,0,1-2.322,1.049,1.661,1.661,0,0,1-1.248-1.492c.092-1.148.237-2.291.36-3.437Zm1.21,3.562c.894-.012,1.478-.34,1.478-.83a1.386,1.386,0,0,0-1.452-1.494,1.46,1.46,0,0,0-1.316,1.378C2733.78-11.382,2734.538-10.826,2735.074-10.834Zm1.195.273-1.777.354A1.3,1.3,0,0,0,2736.269-10.56Z" transform="translate(-615.46 -460.531)" fill="#ffc42e"/>
    <path id="Path_119" data-name="Path 119" d="M2337.99-136.744c-.581.554-17.473.771-18.348.224Z" transform="translate(-257.59 -354.694)" fill="#ffc42e"/>
    <path id="Path_120" data-name="Path 120" d="M2767.885-208.987a2.735,2.735,0,0,1-1.3,2.635,1.693,1.693,0,0,1-2,0,1.562,1.562,0,0,1-.635-1.646,3.207,3.207,0,0,1,2.58-2.759,1.114,1.114,0,0,1,1.3.966A6.106,6.106,0,0,1,2767.885-208.987Zm-3.459.935a4.183,4.183,0,0,0,.072.619c.207.808.762.991,1.329.39a11.256,11.256,0,0,0,1.383-1.778,1.1,1.1,0,0,0-.046-.955,1.061,1.061,0,0,0-.81-.427A2.342,2.342,0,0,0,2764.427-208.052Z" transform="translate(-641.992 -290.642)" fill="#ffc42e"/>
    <path id="Path_121" data-name="Path 121" d="M2721.444,105.933c-.729-.124-1.521-.084-1.824-.858a1.829,1.829,0,0,1,.7-2.031,3.82,3.82,0,0,1,.686-.534,1.739,1.739,0,0,1,2.638.634c.51.884.24,1.733-.825,2.331A7.392,7.392,0,0,1,2721.444,105.933Zm-.9-.9c.772-.367,1.5-.674,2.195-1.059.383-.214.39-.567.053-.891-.406-.391-.813-.705-1.418-.365-.815.459-1.4,1.267-1.253,1.828C2720.16,104.691,2720.334,104.8,2720.544,105.034Zm1.134.21c1.026-.057,1.416-.31,1.494-.914Z" transform="translate(-603.559 -561.394)" fill="#ffc42e"/>
    <path id="Path_122" data-name="Path 122" d="M2341.619-117.545a4.928,4.928,0,0,1,.694-.117,33.873,33.873,0,0,1,9.151.793,7.214,7.214,0,0,1,1.627.617c.284.151.665.51.646.746a1.244,1.244,0,0,1-.648.842,10.615,10.615,0,0,1-2.276.788c-1.645.341-3.308.589-4.965.87-.059.01-.127-.026-.234-.161a5.652,5.652,0,0,1,.671-.219c1.844-.364,3.692-.712,5.536-1.081a2.694,2.694,0,0,0,.881-.311,4.6,4.6,0,0,0,.7-.656c-.234-.217-.434-.541-.71-.633a14.128,14.128,0,0,0-2.906-.787c-2.314-.239-4.644-.336-6.967-.489-.4-.026-.794-.047-1.191-.07C2341.625-117.456,2341.622-117.5,2341.619-117.545Z" transform="translate(-276.604 -371.185)" fill="#ffc42e"/>
    <path id="Path_123" data-name="Path 123" d="M2504.738,170.215a140.442,140.442,0,0,1,15.1.057c0,.073,0,.145,0,.218H2504.74Q2504.74,170.352,2504.738,170.215Z" transform="translate(-417.735 -620.124)" fill="#ffc42e"/>
    <path id="Path_124" data-name="Path 124" d="M2703.55,32.747a106.712,106.712,0,0,1-1.474,14.039l-.191-.02,1.415-14.045Z" transform="translate(-588.307 -501.316)" fill="#ffc42e"/>
    <path id="Path_125" data-name="Path 125" d="M2720.58,190.248c-.823.021-1.435-.323-1.556-.875a2.091,2.091,0,0,1,.954-2.121c.261-.118.521-.237.778-.365a1.173,1.173,0,0,1,1.671.7A1.884,1.884,0,0,1,2720.58,190.248Zm1.462-2.233c-.658-1.034-.87-1.085-1.678-.549a.97.97,0,0,1-.163.115,1.59,1.59,0,0,0-.825,1.477c.116.517.911.857,1.295.5C2721.18,189.072,2721.611,188.506,2722.042,188.015Z" transform="translate(-603.105 -634.584)" fill="#ffc42e"/>
    <path id="Path_126" data-name="Path 126" d="M2754.984-120.38a10.648,10.648,0,0,1-.657,1.784,1.814,1.814,0,0,1-2.215.585,1.38,1.38,0,0,1-.669-1.823,3.932,3.932,0,0,1,.968-1.614,1.491,1.491,0,0,1,1.851-.309C2754.638-121.493,2754.751-120.855,2754.984-120.38Zm-.693.256c.011-.952-.187-1.3-.751-1.326a1.792,1.792,0,0,0-1.682,2.32,1.234,1.234,0,0,0,1.459.769C2754-118.527,2754.279-119.041,2754.291-120.124Z" transform="translate(-631.096 -367.48)" fill="#ffc42e"/>
    <path id="Path_127" data-name="Path 127" d="M2713.482-77.724a122.584,122.584,0,0,1-1.518,13.25l1.137-13.29Z" transform="translate(-597.027 -405.724)" fill="#ffc42e"/>
    <path id="Path_128" data-name="Path 128" d="M2406.495,169.778h12.175l.045.185a1.516,1.516,0,0,1-.458.162c-2.532.018-5.065.042-7.6.023-1.187-.009-2.374-.1-3.562-.165-.206-.01-.411-.038-.617-.058Z" transform="translate(-332.723 -619.897)" fill="#ffc42e"/>
    <path id="Path_129" data-name="Path 129" d="M2591.672-111.139c4.256-.823,8.734-.6,13.206-.527l.008.193Z" transform="translate(-492.95 -376.321)" fill="#ffc42e"/>
    <path id="Path_130" data-name="Path 130" d="M2482.27,18.014a21.3,21.3,0,0,1,6.421.172,3.534,3.534,0,0,1,.994.67c-.338.206-.67.58-1.014.591q-2.861.087-5.733-.091l6.288-.238,0-.323C2487.019,17.615,2484.569,18.425,2482.27,18.014Z" transform="translate(-398.295 -488.454)" fill="#ffc42e"/>
    <path id="Path_131" data-name="Path 131" d="M2621.763-5.18a18.731,18.731,0,0,1,2.029.618c1.167.5,2.3,1.074,3.445,1.622a1.078,1.078,0,0,1,.216.159c1.454,1.226,1.292,2.589-.41,3.429a1.6,1.6,0,0,1-.827.2c.335-.209.675-.41,1-.627,1.039-.685,1.2-1.607.258-2.42a11.994,11.994,0,0,0-2.554-1.556,22.034,22.034,0,0,0-2.333-.843c-.305-.109-.6-.236-.906-.355Z" transform="translate(-518.917 -468.524)" fill="#ffc42e"/>
    <path id="Path_132" data-name="Path 132" d="M2590.188-88.056c3.809.554,7.61.41,11.472.612C2600.151-86.858,2590.589-87.389,2590.188-88.056Z" transform="translate(-491.666 -396.819)" fill="#ffc42e"/>
    <path id="Path_133" data-name="Path 133" d="M2634.074,171.21c-.625.337-8.919.448-9.709,0Z" transform="translate(-521.236 -621.136)" fill="#ffc42e"/>
    <path id="Path_134" data-name="Path 134" d="M2723.656-147.188q.187-2.542.373-5.083c.069-.955.132-1.911.205-2.956C2724.622-154.629,2724.23-148.623,2723.656-147.188Z" transform="translate(-607.143 -338.703)" fill="#ffc42e"/>
    <path id="Path_135" data-name="Path 135" d="M2756.125-159.532c-1.151.4-4.341.666-5.2.3a2.384,2.384,0,0,1,.694-.285C2753.2-159.54,2754.791-159.532,2756.125-159.532Z" transform="translate(-630.732 -334.977)" fill="#ffc42e"/>
    <path id="Path_136" data-name="Path 136" d="M2599.846-147.074l-10.6.25q0-.141,0-.281h10.6Z" transform="translate(-490.851 -345.73)" fill="#ffc42e"/>
    <path id="Path_137" data-name="Path 137" d="M2631.323,130.17a16.62,16.62,0,0,0-1.775.316,18.811,18.811,0,0,0-2.647.911c-.73.333-.727.7-.147,1.272-.71-.163-.907-.692-.419-1.2a5.526,5.526,0,0,1,2.84-1.26,20.124,20.124,0,0,1,2.106-.32C2631.295,129.982,2631.308,130.076,2631.323,130.17Z" transform="translate(-522.707 -585.385)" fill="#ffc42e"/>
    <path id="Path_138" data-name="Path 138" d="M2339.026-105.107c.225-.1.455-.3.674-.291,1.512.089,3.024.2,4.53.361.216.023.4.318.605.487l-.624.652-.182-.188.592-.362-.078-.2A15.149,15.149,0,0,0,2339.026-105.107Z" transform="translate(-274.36 -381.814)" fill="#ffc42e"/>
    <path id="Path_139" data-name="Path 139" d="M2745.466-138.869q-.229,3.449-.458,6.9l-.183-.01.313-6.909Z" transform="translate(-625.458 -352.837)" fill="#ffc42e"/>
    <path id="Path_140" data-name="Path 140" d="M2366.056-152.984h-4.3l.006-.11h4.3Z" transform="translate(-294.028 -340.548)" fill="#ffc42e"/>
    <path id="Path_141" data-name="Path 141" d="M2713.117,181.51h3.01A3.6,3.6,0,0,1,2713.117,181.51Z" transform="translate(-598.024 -630.048)" fill="#ffc42e"/>
    <path id="Path_142" data-name="Path 142" d="M2362.558,50.649h-2.825a7.485,7.485,0,0,1,2.8-.256Q2362.546,50.521,2362.558,50.649Z" transform="translate(-292.276 -516.581)" fill="#ffc42e"/>
    <path id="Path_143" data-name="Path 143" d="M2485.865-150.667l-2.3,2.333-.11-.1,2.481-2.129Z" transform="translate(-399.32 -342.648)" fill="#ffc42e"/>
    <path id="Path_144" data-name="Path 144" d="M2322.181-150.123h2.5v.139h-2.512Z" transform="translate(-259.78 -343.119)" fill="#ffc42e"/>
    <path id="Path_145" data-name="Path 145" d="M2478.854-131.556l2.008-1.882.106.113-1.994,1.892Z" transform="translate(-395.34 -357.555)" fill="#ffc42e"/>
    <path id="Path_146" data-name="Path 146" d="M2677.138,57.479h-2.68l0-.1,2.669-.146Z" transform="translate(-564.574 -522.522)" fill="#ffc42e"/>
    <path id="Path_147" data-name="Path 147" d="M2722.422,176.592c-.5,0-.992.011-1.487-.011-.078,0-.148-.16-.222-.245.082-.056.171-.168.245-.158.49.065.976.157,1.463.24C2722.421,176.476,2722.421,176.534,2722.422,176.592Z" transform="translate(-604.596 -625.434)" fill="#ffc42e"/>
    <path id="Path_148" data-name="Path 148" d="M2698.289,154.548c-.031-.465-.061-.93-.1-1.495C2698.652,153.439,2698.681,153.859,2698.289,154.548Z" transform="translate(-585.11 -605.427)" fill="#ffc42e"/>
    <path id="Path_149" data-name="Path 149" d="M2941.838-157.987c-.116,1.084-.191,2.175-.357,3.251-.345,2.237-.8,4.459-1.1,6.7-.549,4.08-1,8.172-1.53,12.255-.635,4.933-.806,9.93-2,14.786-.04.162-.1.318-.154.477l-.2-.04c.177-1.134.369-2.265.528-3.4.305-2.174.628-4.346.88-6.527.478-4.143.848-8.3,1.378-12.435.6-4.688,1.326-9.36,2.007-14.037a10.559,10.559,0,0,1,.276-1.095Z" transform="translate(-791.288 -336.259)" fill="#ffc42e"/>
    <path id="Path_150" data-name="Path 150" d="M2806.522-27.167l-.484.19.089.153,2.188.276c-.07.459-.249.555-.676.428a5.67,5.67,0,0,0-1.611-.317c-5.7.046-11.4.125-17.106.193-.593.007-1.186,0-1.779,0l-.006-.23c.965-.124,1.928-.332,2.9-.359,4.69-.13,9.382-.205,14.074-.317.758-.018,1.513-.121,2.27-.185Z" transform="translate(-662.067 -449.356)" fill="#ffc42e"/>
    <path id="Path_151" data-name="Path 151" d="M2789.573,90.777c-1,.6-21.825.553-22.68,0Z" transform="translate(-644.552 -551.546)" fill="#ffc42e"/>
    <path id="Path_152" data-name="Path 152" d="M2880.1-200.822c0,1.51-.757,2.119-2.23,1.77a4.026,4.026,0,0,1-.884-.3c-.467-.236-1.015-.409-1.056-1.08a1.894,1.894,0,0,1,.9-1.892,4.194,4.194,0,0,1,1.373-.5C2879.171-202.995,2880.213-202.524,2880.1-200.822Zm-.461.01a5.491,5.491,0,0,0-.113-.615,1.252,1.252,0,0,0-1.507-.991c-.865.139-1.65.879-1.582,1.555a.98.98,0,0,0,.354.667,5.459,5.459,0,0,0,1.378.632C2879.195-199.271,2879.649-199.647,2879.64-200.812Z" transform="translate(-738.886 -297.493)" fill="#ffc42e"/>
    <path id="Path_153" data-name="Path 153" d="M2821.831,3.61c-.572.123-1.138.288-1.716.361-2.241.283-4.5.455-6.725.828a36.015,36.015,0,0,0-4.606,1.2,4.426,4.426,0,0,0-2.775,1.876l-.131-.1a3.76,3.76,0,0,1,.384-.591,7.221,7.221,0,0,1,3.913-1.959c2.78-.579,5.59-1.014,8.389-1.5.792-.138,1.588-.257,2.385-.369.272-.038.552-.029.828-.041Z" transform="translate(-678.28 -475.868)" fill="#ffc42e"/>
    <path id="Path_154" data-name="Path 154" d="M2843.251,24.593l-.458.071c.034.044.05.086.072.09a17.922,17.922,0,0,1,1.844.32c.664.186.787.7.35,1.241a2.978,2.978,0,0,1-2.205.991c-.822.066-1.654.013-2.481,0a1.618,1.618,0,0,1-.458-.094c-.872-.279-1.051-.8-.393-1.4A4.363,4.363,0,0,1,2843.251,24.593Zm-1.527,2.4.056.181c.905-.264,1.833-.471,2.708-.813.6-.233.577-.653-.008-.944a4.176,4.176,0,0,0-1.145-.334,3.825,3.825,0,0,0-3.136.573,3.427,3.427,0,0,0-.567.761,3.521,3.521,0,0,0,.824.457A8.032,8.032,0,0,0,2841.725,26.994Z" transform="translate(-707.047 -494.238)" fill="#ffc42e"/>
    <path id="Path_155" data-name="Path 155" d="M2797.367,111.3h-16.112v-.163h16.1Z" transform="translate(-656.977 -569.163)" fill="#ffc42e"/>
    <path id="Path_156" data-name="Path 156" d="M2806.99-112.96c5.26-.247,10.455-.425,15.649-.238q-7.454.251-14.907.489A2.31,2.31,0,0,1,2806.99-112.96Z" transform="translate(-679.243 -374.999)" fill="#ffc42e"/>
    <path id="Path_157" data-name="Path 157" d="M2793.62-6.416l14.331.588c-4.782-.06-9.573.13-14.34-.354Q2793.616-6.3,2793.62-6.416Z" transform="translate(-667.669 -467.454)" fill="#ffc42e"/>
    <path id="Path_158" data-name="Path 158" d="M2772.7,169.078h-14.081c4.685-.229,9.375-.219,14.065-.237Q2772.691,168.959,2772.7,169.078Z" transform="translate(-637.392 -619.087)" fill="#ffc42e"/>
    <path id="Path_159" data-name="Path 159" d="M2815.583,49.073c-.12.879.447,1.174,1.11,1.242,2.445.248,4.894.448,7.343.656.345.029.694,0,1.041,0,0,.058,0,.116,0,.175-.329,0-.659.012-.987,0-2.237-.1-4.475-.183-6.711-.313a4.53,4.53,0,0,1-1.353-.359C2815.317,50.2,2815.207,49.843,2815.583,49.073Z" transform="translate(-686.495 -515.463)" fill="#ffc42e"/>
    <path id="Path_160" data-name="Path 160" d="M2824.182,126.4l8.671-1.022q.018.157.036.314c-2.871.5-5.809.423-8.679.928Z" transform="translate(-694.118 -581.485)" fill="#ffc42e"/>
    <path id="Path_161" data-name="Path 161" d="M2871.92-101.2l8.094-1.053q.021.166.043.332l-8.1.939C2871.944-101.057,2871.932-101.13,2871.92-101.2Z" transform="translate(-735.421 -384.534)" fill="#ffc42e"/>
    <path id="Path_162" data-name="Path 162" d="M2837.614-210.569h8.584a73.726,73.726,0,0,1-8.583.235Z" transform="translate(-705.74 -290.821)" fill="#ffc42e"/>
    <path id="Path_163" data-name="Path 163" d="M2825.73-171.085l-5.281.218-.011-.355a51.4,51.4,0,0,1,5.286-.066Z" transform="translate(-690.878 -324.776)" fill="#ffc42e"/>
    <path id="Path_164" data-name="Path 164" d="M2786.069,70.42l5.094.382a19.17,19.17,0,0,1-5.135-.071Z" transform="translate(-661.107 -533.933)" fill="#ffc42e"/>
    <path id="Path_165" data-name="Path 165" d="M2842.847-46.741a1.381,1.381,0,0,1,.366-.107c1.852-.007,3.7,0,5.555,0,0,.078,0,.155.005.233-.823,0-1.646,0-2.469,0-1.134-.008-2.268-.025-3.4-.038Z" transform="translate(-710.267 -432.469)" fill="#ffc42e"/>
    <path id="Path_166" data-name="Path 166" d="M2796.425,152.1l-1.7-.5.113-.343,1.671.6Z" transform="translate(-668.635 -603.874)" fill="#ffc42e"/>
    <path id="Path_167" data-name="Path 167" d="M2132.754,78.217a21.346,21.346,0,0,1,4.226-.262c1.458-.052,2.918-.04,4.378-.049,1.437-.009,2.877-.063,4.311,0,1.381.062,2.81-.319,4.142.3q0,.094-.006.187h-17.042Z" transform="translate(-95.894 -540.359)" fill="#ffc42e"/>
    <path id="Path_168" data-name="Path 168" d="M2112.144-132.576a6.517,6.517,0,0,1,.983-.132c3.656.051,7.313.091,10.968.19,1.859.05,3.715.209,5.571.33.306.02.609.1.914.148q0,.1-.01.19l-18.385-.476Z" transform="translate(-78.062 -358.186)" fill="#ffc42e"/>
    <path id="Path_169" data-name="Path 169" d="M2139.8-26.922l-18.238-.649-.024-.235a3.382,3.382,0,0,1,.687-.121c3.363.092,6.727.2,10.09.3,1.928.053,3.857.061,5.784.126a16.1,16.1,0,0,1,1.753.245Z" transform="translate(-86.185 -448.842)" fill="#ffc42e"/>
    <path id="Path_170" data-name="Path 170" d="M2151.562.987,2137.47.762q0-.149,0-.3c4.709-.065,9.416.02,14.119.288Q2151.578.869,2151.562.987Z" transform="translate(-99.974 -473.388)" fill="#ffc42e"/>
    <path id="Path_171" data-name="Path 171" d="M2150.658,145.07c-1.479.729-13.358.912-14.31.25A103.9,103.9,0,0,0,2150.658,145.07Z" transform="translate(-99.003 -598.52)" fill="#ffc42e"/>
    <path id="Path_172" data-name="Path 172" d="M2118.035-104.649a80.276,80.276,0,0,1,14.323-1.024Z" transform="translate(-83.159 -381.567)" fill="#ffc42e"/>
    <path id="Path_173" data-name="Path 173" d="M2153.716-87.334c2.415-.105,4.829-.214,7.245-.309a1.983,1.983,0,0,1,.661.113c.524.167.635.509.244.893a12.454,12.454,0,0,1-1.183.924l-.126-.159a7.562,7.562,0,0,0,.794-.591,2.92,2.92,0,0,0,.381-.587c-.209-.1-.419-.3-.627-.294-1.5.027-3,.083-4.5.154-.95.045-1.9.131-2.848.2Z" transform="translate(-114.03 -397.176)" fill="#ffc42e"/>
    <path id="Path_174" data-name="Path 174" d="M2137.848-149.116h5.682c0,.054,0,.107,0,.161h-5.683Z" transform="translate(-100.301 -343.99)" fill="#ffc42e"/>
    <path id="Path_175" data-name="Path 175" d="M2205.253-88.544c.744-.111,1.5-.186,2.231-.344a7.337,7.337,0,0,0,1.647-.537c1.241-.6,1.391-1.573.41-2.726.144,0,.271-.04.328.006a1.744,1.744,0,0,1,0,2.588,3.421,3.421,0,0,1-1.25.613c-1.1.239-2.223.386-3.337.571Z" transform="translate(-158.62 -393.262)" fill="#ffc42e"/>
    <path id="Path_176" data-name="Path 176" d="M2253.193,168.362H2248.8A8.618,8.618,0,0,1,2253.193,168.362Z" transform="translate(-196.297 -618.426)" fill="#ffc42e"/>
    <path id="Path_177" data-name="Path 177" d="M2205.08,33.89h6.166A19.531,19.531,0,0,1,2205.08,33.89Z" transform="translate(-158.47 -502.327)" fill="#ffc42e"/>
    <path id="Path_178" data-name="Path 178" d="M2159.936,120.468l-3.528-.326.029-.271,3.514.465C2159.946,120.38,2159.941,120.424,2159.936,120.468Z" transform="translate(-116.359 -576.718)" fill="#ffc42e"/>
    <path id="Path_179" data-name="Path 179" d="M2144.716-62.918l-2.528-.168C2142.651-63.432,2143.473-63.379,2144.716-62.918Z" transform="translate(-104.056 -418.229)" fill="#ffc42e"/>
    <path id="Path_180" data-name="Path 180" d="M2220.865-48.086c.374.679.374.679,1.809.943a12.033,12.033,0,0,1-1.539-.023c-.17-.022-.349-.3-.438-.492C2220.653-47.755,2220.8-47.941,2220.865-48.086Z" transform="translate(-171.975 -431.401)" fill="#ffc42e"/>
    <path id="Path_181" data-name="Path 181" d="M2081.283,59.083a89.332,89.332,0,0,0-.549-11.573l.18-.035a9.823,9.823,0,0,1,.291,1.476q.228,4.9.389,9.812a5.313,5.313,0,0,1-.253,1.635,1.8,1.8,0,0,1-1.579,1.365,2.228,2.228,0,0,1-2.2-.7c-.545-.706-.071-2.283.808-2.927a1.706,1.706,0,0,1,2.493.359C2081.017,58.679,2081.144,58.886,2081.283,59.083Zm-3.323.778c-.008.806.352,1.277.963,1.261s1.876-.8,1.877-1.157a1.9,1.9,0,0,0-1.733-1.752C2078.488,58.192,2077.97,58.962,2077.961,59.862Z" transform="translate(-47.942 -514.081)" fill="#ffc42e"/>
    <path id="Path_182" data-name="Path 182" d="M2283.669,8.033c0,1.175-.891,2.4-1.75,2.4a2.21,2.21,0,0,1-1.91-1.792c-.016-1,1-2.338,1.778-2.353A2.318,2.318,0,0,1,2283.669,8.033Zm-.957.017c-.149-.63-.254-.742-.861-.943a.751.751,0,0,0-.962.369,1.331,1.331,0,0,0,.349,1.932c.154.1.541.105.623,0A13.947,13.947,0,0,0,2282.712,8.05Z" transform="translate(-223.298 -478.446)" fill="#ffc42e"/>
    <path id="Path_183" data-name="Path 183" d="M2267.072-208.885a1.613,1.613,0,0,1,1.46.948,2.856,2.856,0,0,1,.094,2.7,2.079,2.079,0,0,1-2.6,1.192,1.43,1.43,0,0,1-1.058-1.385,4.813,4.813,0,0,1,.994-2.87C2266.183-208.6,2266.693-208.7,2267.072-208.885Zm1.244,2.463a3.062,3.062,0,0,1-1.643,1.72c.133-.245.16-.358.232-.418a2.976,2.976,0,0,0,.97-2.343.8.8,0,0,0-.631-.893c-.44-.142-.946-.171-1.113.3a11.959,11.959,0,0,0-.6,2.516c-.031.258.324.7.608.837C2267.317-204.113,2268.389-204.736,2268.315-206.422Z" transform="translate(-210.285 -292.278)" fill="#ffc42e"/>
    <path id="Path_184" data-name="Path 184" d="M2194.854,194.891a9.985,9.985,0,0,1-.987-.169c-.65-.169-1.182-.5-1.185-1.262s.162-1.642.968-1.818a6.754,6.754,0,0,1,2.8.012,1.438,1.438,0,0,1,1.009,1.693,2.14,2.14,0,0,1-1.662,1.48C2195.534,194.862,2195.263,194.864,2194.854,194.891Zm-.277-3c-.941-.035-1.458.4-1.45,1.243,0,.507.263.9.781.734a6.128,6.128,0,0,0,1.638-.85.9.9,0,0,0,.214-.779c-.032-.145-.412-.233-.648-.3A2.38,2.38,0,0,0,2194.577,191.893Zm1.732.345c-.163,1.316-1.074,1.685-2.126,1.98a4.824,4.824,0,0,0,1.95-.014C2197.176,193.9,2197.263,193.028,2196.309,192.239Z" transform="translate(-147.743 -638.691)" fill="#ffc42e"/>
    <path id="Path_185" data-name="Path 185" d="M2289.9,112.822c-1.164.012-1.877-.534-1.878-1.438a2.183,2.183,0,0,1,2.047-2.243,1.967,1.967,0,0,1,1.746,1.881A1.754,1.754,0,0,1,2289.9,112.822Zm-.565-1.2c.934,0,1.612-.478,1.451-1.136a1.493,1.493,0,0,0-1-.781c-.564-.136-1.226.725-1.23,1.421C2288.547,111.773,2289.04,111.555,2289.333,111.622Zm1.858-.413-1.4,1.009C2290.925,112.251,2291.194,112.047,2291.191,111.209Z" transform="translate(-230.23 -567.434)" fill="#ffc42e"/>
    <path id="Path_186" data-name="Path 186" d="M2157.432-204.794a1.78,1.78,0,0,1-1.95,1.9,2.126,2.126,0,0,1-2.208-1.752,2.948,2.948,0,0,1,2.479-2.61C2156.692-207.261,2157.416-206.2,2157.432-204.794Zm-2.253,1.1a3.621,3.621,0,0,1,.467-.3,1.445,1.445,0,0,0,.879-1.749,1.1,1.1,0,0,0-1.772-.834,2.217,2.217,0,0,0-1,1.892c.029.718.723.983,1.294,1.223a1.306,1.306,0,0,0,1.91-1.148C2156.481-204.154,2156.1-203.547,2155.18-203.7Z" transform="translate(-113.648 -293.684)" fill="#ffc42e"/>
    <path id="Path_187" data-name="Path 187" d="M2065.1,10.319a2.052,2.052,0,0,1,2.394-2.192,2.015,2.015,0,0,1,1.485,1.826,2.084,2.084,0,0,1-2.23,2.073A1.59,1.59,0,0,1,2065.1,10.319Zm1.485.747c.716-.1,1.913-.657,1.8-.954a4.229,4.229,0,0,0-.958-1.446.943.943,0,0,0-1.295.017,2,2,0,0,0-.462,1.927C2065.821,10.855,2066.275,10.919,2066.59,11.066Z" transform="translate(-37.363 -480.035)" fill="#ffc42e"/>
    <path id="Path_188" data-name="Path 188" d="M2050.124-205.156c-1.785,0-2.59-1.158-1.8-2.759a7.523,7.523,0,0,1,1.465-1.792.957.957,0,0,1,.8-.137,3.369,3.369,0,0,1,1.693,3.045A2.028,2.028,0,0,1,2050.124-205.156Zm.1-.54c1.366-.009,1.945-.865,1.352-2.089a6.281,6.281,0,0,0-.945-1.291.613.613,0,0,0-1.036.019,6.681,6.681,0,0,0-.749,1.109C2048.144-206.6,2048.714-205.686,2050.228-205.7Z" transform="translate(-22.581 -291.421)" fill="#ffc42e"/>
    <path id="Path_189" data-name="Path 189" d="M2051.9-112.165a2.794,2.794,0,0,0-.758,2.13c.038.739.465,1.013,1.167.775a4.065,4.065,0,0,0,.688-.257c.334-.187.945-.522.915-.608a5.451,5.451,0,0,0-.8-1.413c-.125-.167-.423-.2-.694-.324a.831.831,0,0,1,1.161-.132,2.509,2.509,0,0,1,.865,2.407,1.769,1.769,0,0,1-2.424,1.323,1.527,1.527,0,0,1-1.311-1.412,2.592,2.592,0,0,1,.764-2.327A1.284,1.284,0,0,1,2051.9-112.165Zm1.85,2.82-1.336.573C2053.139-108.5,2053.536-108.706,2053.75-109.345Z" transform="translate(-24.884 -375.953)" fill="#ffc42e"/>
    <path id="Path_190" data-name="Path 190" d="M2274.291-96.113c1.354.006,1.8.424,1.793,1.669a1.852,1.852,0,0,1-1.762,2.055,1.8,1.8,0,0,1-1.818-1.755C2272.5-95.459,2273.1-96.118,2274.291-96.113Zm-1.421,1.733c.174.317.285.721.549.917.142.105.568-.109.829-.247a2.64,2.64,0,0,0,.74-.566.881.881,0,0,0-.465-1.5C2273.655-96.024,2273-95.457,2272.87-94.38Zm2.625.338-1.675.886C2274.788-92.678,2275.469-93.061,2275.5-94.042Z" transform="translate(-216.806 -389.848)" fill="#ffc42e"/>
    <path id="Path_191" data-name="Path 191" d="M2296.641,192.314c.042-1.23.727-2.028,1.712-1.995a1.9,1.9,0,0,1,1.574,1.666,1.867,1.867,0,0,1-1.97,1.7A1.26,1.26,0,0,1,2296.641,192.314Zm2.355.642c-.051-.526-.095-1.055-.155-1.583a.7.7,0,0,0-1.1-.481,1.65,1.65,0,0,0-.429,1.822C2297.6,193.2,2298.225,193.315,2299,192.956Z" transform="translate(-237.688 -637.669)" fill="#ffc42e"/>
    <path id="Path_192" data-name="Path 192" d="M2088.646-214.584c.638,2.027.351,4.139.609,6.2l-.248.081a2.977,2.977,0,0,1-.357-.835c-.154-1.672-.271-3.347-.384-5.022-.01-.146.1-.3.161-.451Z" transform="translate(-57.403 -287.324)" fill="#ffc42e"/>
    <path id="Path_193" data-name="Path 193" d="M2135.634,184.328h6.749C2141.275,184.805,2136.244,184.751,2135.634,184.328Z" transform="translate(-98.386 -632.486)" fill="#ffc42e"/>
    <path id="Path_194" data-name="Path 194" d="M2047.649-69.962q-.255-4.173-.509-8.346l.333-.018.374,8.353Z" transform="translate(-21.82 -405.238)" fill="#ffc42e"/>
    <path id="Path_195" data-name="Path 195" d="M2288.137,179.551h4.825q0,.141,0,.283a25.306,25.306,0,0,1-4.819-.091Z" transform="translate(-230.331 -628.353)" fill="#ffc42e"/>
    <path id="Path_196" data-name="Path 196" d="M2097.435-209q-.135-1.127-.271-2.255l3.005.223.01.207c-.39.017-.78.041-1.17.049-1.286.025-1.284.022-1.325,1.268a4.654,4.654,0,0,1-.07.5Z" transform="translate(-65.101 -290.225)" fill="#ffc42e"/>
    <path id="Path_197" data-name="Path 197" d="M2264.583-162.658c.4-.512,2.114-.629,3.793-.437l.012.192Z" transform="translate(-209.952 -331.82)" fill="#ffc42e"/>
    <path id="Path_198" data-name="Path 198" d="M2207.563-211.734a3.943,3.943,0,0,1-3.171-.147Z" transform="translate(-157.874 -289.686)" fill="#ffc42e"/>
    <path id="Path_199" data-name="Path 199" d="M2272.869-152.605c-.943.515-1.873.453-2.14-.193Z" transform="translate(-215.27 -340.804)" fill="#ffc42e"/>
    <path id="Path_200" data-name="Path 200" d="M2800.872-473.795c2.645,4.128,3.6,8.779,4.2,13.538l-.217.058c-.176-.932-.356-1.863-.524-2.8a31.431,31.431,0,0,0-2.923-9.246.874.874,0,0,0-.927-.542q-10.366.121-20.732.19a3.389,3.389,0,0,1-.929-.271c.192-.569.6-.171.9-.176,2.936-.045,5.873-.056,8.809-.085,3.816-.038,7.631-.078,11.447-.14a2.44,2.44,0,0,0,.778-.307Z" transform="translate(-654.874 -63.077)" fill="#ffc42e"/>
    <path id="Path_201" data-name="Path 201" d="M2820.078-375.5a4.549,4.549,0,0,1-.96.245c-2.019.072-4.038.116-6.058.163q-6.729.155-13.459.3c-.756.016-1.512,0-2.269,0l-.052-.219a2.024,2.024,0,0,1,.58-.209c3.948-.129,7.9-.257,11.844-.359,3.2-.082,6.409-.13,9.614-.192.234,0,.468,0,.7,0Z" transform="translate(-670.842 -147.888)" fill="#ffc42e"/>
    <path id="Path_202" data-name="Path 202" d="M2781.4-504.99c1.064.139,2.132.259,3.192.427.479.076,1.027.3.927.86a1.512,1.512,0,0,1-.842.895,11.893,11.893,0,0,1-6.866.535c-.4-.072-1.048-.534-1.022-.748a1.922,1.922,0,0,1,.785-1.193C2778.54-504.879,2779.473-504.992,2781.4-504.99Zm-.716,2.615c1.049-.172,2.2-.32,3.328-.568a3.686,3.686,0,0,0,1.03-.638,4.432,4.432,0,0,0-.989-.684,10.089,10.089,0,0,0-5.346-.065,2.729,2.729,0,0,0-.968.435,3.78,3.78,0,0,0-.607.657c.258.184.5.48.777.531C2778.78-502.55,2779.672-502.487,2780.68-502.375Z" transform="translate(-653.109 -36.087)" fill="#ffc42e"/>
    <path id="Path_203" data-name="Path 203" d="M2753.857-378.583c-.624-.057-1.317-.071-1.645-.766a1.684,1.684,0,0,1,.507-1.945,2.175,2.175,0,0,1,2.76-.6,1.569,1.569,0,0,1,.723,1.745,2.1,2.1,0,0,1-1.717,1.518A5.169,5.169,0,0,1,2753.857-378.583Zm.144-3.3-.059.218c-.158.138-.312.281-.476.412-.186.15-.438.252-.562.44-.533.814-.114,1.537.94,1.665s1.773-.359,1.774-1.187l-1.636.864-.108-.209c.276-.18.558-.353.828-.542.287-.2.563-.419,1.015-.757Z" transform="translate(-631.724 -142.344)" fill="#ffc42e"/>
    <path id="Path_204" data-name="Path 204" d="M2733.647-470.624l.387-.353c-.444-.169-.883-.3-1.289-.5a.817.817,0,0,1-.374-1.317,2.143,2.143,0,0,1,2.565-.88c.4.143.834.169,1.225.321a1.424,1.424,0,0,1,.932,1.405c-.114.622-.509.9-1.342.969-.331.029-.658.109-.986.165Zm2.353-2.129a2.448,2.448,0,0,0-2.9-.266c-.569.391-.542.841.069,1.16C2734.516-471.159,2735.313-471.4,2736-472.753Zm-.28,1.221.111.156a3.117,3.117,0,0,0,.739-.411c.073-.07-.063-.363-.146-.75Z" transform="translate(-614.516 -63.069)" fill="#ffc42e"/>
    <path id="Path_205" data-name="Path 205" d="M2783.359-445.342c5.272.85,10.525.293,15.772.128,1.245-.039,2.493-.006,3.84-.006a1.334,1.334,0,0,1-.263.083c-5.083.169-10.166.357-15.25.482a20.147,20.147,0,0,1-3.137-.3A4.131,4.131,0,0,1,2783.359-445.342Z" transform="translate(-658.798 -87.695)" fill="#ffc42e"/>
    <path id="Path_206" data-name="Path 206" d="M2882.12-339.562c-2.12-.124-4.245-.188-6.356-.4a30.022,30.022,0,0,1-3.949-.746c-.405-.1-.735-.478-1.123-.686-.305-.164-.652-.247-.97-.391a7.2,7.2,0,0,1-.634-.362,5.146,5.146,0,0,1,.638-.4,3.365,3.365,0,0,1,.664-.139l-.487.657,1.068-.12-.071.1,1.561.628-.022.09-1.1-.166a4.554,4.554,0,0,0,2.619.935c2.18.239,4.37.381,6.555.559.546.044,1.094.076,1.64.114Z" transform="translate(-732.97 -176.519)" fill="#ffc42e"/>
    <path id="Path_207" data-name="Path 207" d="M2774.64-517.557c-5.4.367-10.81.706-16.231.688l-.01-.25,16.231-.684Z" transform="translate(-637.202 -25.002)" fill="#ffc42e"/>
    <path id="Path_208" data-name="Path 208" d="M2815.7-295.712H2797.54v-.3C2803.6-296.22,2809.651-295.968,2815.7-295.712Z" transform="translate(-671.067 -216.828)" fill="#ffc42e"/>
    <path id="Path_209" data-name="Path 209" d="M2836.536-404.933c1.106.706,2.258.464,3.286.726l-.038.21c-.979-.164-1.96-.316-2.935-.5-.142-.028-.377-.286-.354-.332.1-.2.247-.479.434-.533a13.9,13.9,0,0,1,2.856-.689c3.041-.2,6.089-.285,9.134-.419.746-.033,1.491-.086,2.236-.13l.019.178c-.511.067-1.021.171-1.534.194-3.293.147-6.587.256-9.878.426a13.683,13.683,0,0,0-2.308.422A4.9,4.9,0,0,0,2836.536-404.933Z" transform="translate(-704.77 -121.212)" fill="#ffc42e"/>
    <path id="Path_210" data-name="Path 210" d="M2814.68-423.73c-1,.063-2,.138-3,.186-3.986.193-7.973.386-11.961.553a4.155,4.155,0,0,1-1.438-.27C2803.769-423.1,2809.21-423.816,2814.68-423.73Z" transform="translate(-671.711 -106.387)" fill="#ffc42e"/>
    <path id="Path_211" data-name="Path 211" d="M2707.125-528.415l-.656-.132c-.938-.193-1.268-.509-1.132-1.084a1.649,1.649,0,0,1,1.842-1.374c.105.026.185.149.283.218a3.931,3.931,0,0,0,.495.325c.215.106.629.165.637.268.027.372.053.9-.167,1.1A4.943,4.943,0,0,1,2707.125-528.415Zm.533-1.835c-.282-.109-.564-.329-.752-.267a3.24,3.24,0,0,0-1.067.655c-.05.044.182.628.345.662a5.016,5.016,0,0,0,1.58.064c.361-.043.589-.314.277-.719l-.772.366Z" transform="translate(-591.268 -13.549)" fill="#ffc42e"/>
    <path id="Path_212" data-name="Path 212" d="M2878.233-358.017l10.647-.947.057.171a2.749,2.749,0,0,1-.664.273c-1.064.139-2.13.294-3.2.353-2.276.126-4.555.2-6.833.288C2878.238-357.925,2878.235-357.971,2878.233-358.017Z" transform="translate(-740.883 -162.429)" fill="#ffc42e"/>
    <path id="Path_213" data-name="Path 213" d="M2939.573-348.243a4.445,4.445,0,0,0-3.864.937c1.442.673,2.866.489,4.31.763-.167.087-.252.171-.335.169-1.118-.032-2.241-.03-3.352-.144-.345-.035-.657-.392-.984-.6.239-.326.411-.759.729-.959a4.533,4.533,0,0,1,2.9-.677,2.357,2.357,0,0,1,.668.295Z" transform="translate(-790.3 -171.242)" fill="#ffc42e"/>
    <path id="Path_214" data-name="Path 214" d="M2804.635-349.135a50.952,50.952,0,0,1-7.405.331l-.008-.339A57.943,57.943,0,0,1,2804.635-349.135Z" transform="translate(-670.792 -170.826)" fill="#ffc42e"/>
    <path id="Path_215" data-name="Path 215" d="M2900.619-519.7l-5.6-5.609.149-.144A23.55,23.55,0,0,1,2900.619-519.7Z" transform="translate(-755.404 -18.38)" fill="#ffc42e"/>
    <path id="Path_216" data-name="Path 216" d="M2862.356-318.466h2.769l-.429-.64c.145.02.239.009.256.04a1.519,1.519,0,0,1,.266.593c0,.108-.236.307-.385.327a14.651,14.651,0,0,1-2.3.211c-.445-.011-.62-.37-.365-.836a1.957,1.957,0,0,1,1.728-.95c.11.02.2.171.294.262a1.045,1.045,0,0,1-.34.09C2863.209-319.43,2862.835-319.042,2862.356-318.466Z" transform="translate(-726.883 -196.369)" fill="#ffc42e"/>
    <path id="Path_217" data-name="Path 217" d="M2813.53-500.642a15.593,15.593,0,0,0,5.187-1.348,6.8,6.8,0,0,0,.764-.418c.747-.508.8-.789.308-1.532l.13-.113c.146.167.378.314.42.5a1.321,1.321,0,0,1-.647,1.429,10.1,10.1,0,0,1-5.1,1.473C2814.238-500.614,2813.883-500.642,2813.53-500.642Z" transform="translate(-684.902 -36.898)" fill="#ffc42e"/>
    <path id="Path_218" data-name="Path 218" d="M2875.116-493.679h1.4c0,.045.006.091.01.136l-3,.276c.739-.7,2.277-.5,1.946-2.139C2876.081-494.9,2876.022-494.608,2875.116-493.679Z" transform="translate(-736.814 -44.379)" fill="#ffc42e"/>
    <path id="Path_219" data-name="Path 219" d="M2763.934-516.6h6.684c0,.042,0,.085,0,.127h-6.675Z" transform="translate(-641.992 -26.042)" fill="#ffc42e"/>
    <path id="Path_220" data-name="Path 220" d="M2801.062-326.74c1.4,1.051,3.033.424,4.479.927-1.242,0-2.484.022-3.725-.011C2801.339-325.837,2801.161-326.1,2801.062-326.74Z" transform="translate(-674.115 -190.309)" fill="#ffc42e"/>
    <path id="Path_221" data-name="Path 221" d="M2946.3-295.805c.962-.4,1.926.015,2.889.021,0,.054,0,.108,0,.162h-2.872Z" transform="translate(-799.776 -216.924)" fill="#ffc42e"/>
    <path id="Path_222" data-name="Path 222" d="M2771.972-428.817l.922,2.426-.157.064-1.017-2.388Z" transform="translate(-648.728 -101.992)" fill="#ffc42e"/>
    <path id="Path_223" data-name="Path 223" d="M2910.457-490.731l-1.437-.194C2909.691-491.763,2910.035-491,2910.457-490.731Z" transform="translate(-767.52 -47.927)" fill="#ffc42e"/>
    <path id="Path_224" data-name="Path 224" d="M2365.494-199.725a12.917,12.917,0,0,1-1.5-.466,1,1,0,0,1-.527-1.354,2.215,2.215,0,0,1,2.605-1.556,2.91,2.91,0,0,1,1.995,1.108.989.989,0,0,1-.109,1.483A3.471,3.471,0,0,1,2365.494-199.725Zm.21-.481c.98-.083,1.762-.094,2.048-.788.261-.634-.4-1.037-.84-1.3-1.253-.747-2.393-.8-2.912.592a.811.811,0,0,0,.184.746A13.453,13.453,0,0,0,2365.7-200.206Z" transform="translate(-295.436 -297.244)" fill="#ffc42e"/>
    <path id="Path_225" data-name="Path 225" d="M2502.327-204.813a1.762,1.762,0,0,1-1.828,1.762,5.7,5.7,0,0,1-2.024-.592,1.4,1.4,0,0,1-.365-2.229c1.112-1.348,2.761-1.459,3.7-.2A5.44,5.44,0,0,1,2502.327-204.813Zm-1.789,1.387a1.312,1.312,0,0,0,1.22-.995,2.159,2.159,0,0,0-1.271-2.082,1.855,1.855,0,0,0-2.119,1.006,1.034,1.034,0,0,0,.4,1.358A15.624,15.624,0,0,0,2500.538-203.425Z" transform="translate(-411.662 -293.95)" fill="#ffc42e"/>
    <path id="Path_226" data-name="Path 226" d="M2636.946-202.466a8.622,8.622,0,0,1-1.159-.235,1.531,1.531,0,0,1-.9-2.53,2.373,2.373,0,0,1,3.745-.564,1.594,1.594,0,0,1,.5,1.653,2.038,2.038,0,0,1-1.363,1.538A5.1,5.1,0,0,1,2636.946-202.466Zm.116-.51a1.531,1.531,0,0,0,1.681-1.362,1.963,1.963,0,0,0-1.974-1.8,2.151,2.151,0,0,0-1.8,1.8C2634.975-203.582,2635.91-202.974,2637.062-202.976Z" transform="translate(-530.022 -294.366)" fill="#ffc42e"/>
    <path id="Path_227" data-name="Path 227" d="M2552.281-172.3l10.911-.276a75.421,75.421,0,0,1-10.914.542C2552.279-172.126,2552.28-172.214,2552.281-172.3Z" transform="translate(-458.866 -323.69)" fill="#ffc42e"/>
    <path id="Path_228" data-name="Path 228" d="M2649.443-175.768l9.016-.343c0,.084.006.167.009.251l-9.038.333C2649.434-175.607,2649.438-175.687,2649.443-175.768Z" transform="translate(-542.922 -320.634)" fill="#ffc42e"/>
    <path id="Path_229" data-name="Path 229" d="M2422.327-208.92a42.091,42.091,0,0,1-7.958.22q0-.11,0-.22Z" transform="translate(-339.546 -292.247)" fill="#ffc42e"/>
    <path id="Path_230" data-name="Path 230" d="M2550.784-215.105a53.106,53.106,0,0,1-5.7.05l0-.241h5.677Z" transform="translate(-452.641 -286.73)" fill="#ffc42e"/>
    <path id="Path_231" data-name="Path 231" d="M2318.911-214.385h4.171a11.248,11.248,0,0,1-4.2.23Z" transform="translate(-256.935 -287.519)" fill="#ffc42e"/>
    <path id="Path_232" data-name="Path 232" d="M2972.515-6.753c1-.425,1.5-.246,1.934.7a2.131,2.131,0,0,1-1.29,3.274c-.351.139-.692.3-.917.4-.241-.19-.375-.363-.546-.418a2,2,0,0,1-1.439-2.209c.1-1.291.135-2.588.207-3.882a1.05,1.05,0,0,1,.227-.6c.375,1.167-.258,2.28-.177,3.543.37-.381.664-.724,1-1.018a.955.955,0,0,1,1.218-.241c-2.214,1.285-2.624,2.555-1.245,3.685l.37-.573a.909.909,0,0,0,1.515-.5,8.258,8.258,0,0,0,.274-1.446c.011-.166-.2-.412-.376-.511A2.871,2.871,0,0,0,2972.515-6.753Z" transform="translate(-820.494 -464.791)" fill="#ffc42e"/>
    <path id="Path_233" data-name="Path 233" d="M2960.783,111.858l-.818-.366.046-.244a3.586,3.586,0,0,1,1.111.176,2.066,2.066,0,0,1,.548,3.481,3.783,3.783,0,0,1-2.974.909c-.816-.092-1.075-.443-1.019-1.271a3.207,3.207,0,0,1,3.109-2.684,5.238,5.238,0,0,1-.583.467,6.651,6.651,0,0,0-1.1.609,3.552,3.552,0,0,0-.9,1.205c-.1.249.1.661.253.949.033.061.5-.04.715-.162a4.939,4.939,0,0,0,2.335-2.233Zm.967,1.633-2.057,1.771C2960.878,115.3,2961.986,114.3,2961.75,113.491Z" transform="translate(-809.612 -569.257)" fill="#ffc42e"/>
    <path id="Path_234" data-name="Path 234" d="M3009.41-137.252c0,.682.041,1.368-.007,2.047a83.674,83.674,0,0,1-1.788,11.41c-.244,1.155-.381,2.334-.53,3.507-.2,1.556-.357,3.117-.539,4.675a.408.408,0,0,1-.191.284,25.22,25.22,0,0,0,.274-3.354,30.168,30.168,0,0,1,.8-5.909c.306-2.037.788-4.049,1.078-6.088.252-1.773.342-3.569.507-5.354.039-.416.092-.831.139-1.247Z" transform="translate(-851.735 -354.23)" fill="#ffc42e"/>
    <path id="Path_235" data-name="Path 235" d="M2994.4-127.506c0,.2.013.4,0,.6a2.02,2.02,0,0,1-1.309,1.934,2.19,2.19,0,0,1-2.209-.828,1.914,1.914,0,0,1,.171-2.575,2.938,2.938,0,0,1,2.283-.974c.624.024,1.074.3,1.049,1.033-.009.267.029.536.046.8Zm-1.555,1.581a1.5,1.5,0,0,0,.59-2.211c-.074-.167.01-.4.023-.651-.83-.393-1.417.245-2,.684a1.21,1.21,0,0,0-.43,1.552,2.029,2.029,0,0,0,1.9,1.137,3.592,3.592,0,0,0,.744-.375l-.073-.136Z" transform="translate(-837.984 -361.095)" fill="#ffc42e"/>
    <path id="Path_236" data-name="Path 236" d="M2947.763,193.733c-1.113-.16-1.788-.456-1.917-1.042a1.87,1.87,0,0,1,.936-1.932,2.921,2.921,0,0,1,2.322-.652,1.8,1.8,0,0,1,1.446,1.336,1.3,1.3,0,0,1-.738,1.573C2949.155,193.313,2948.448,193.5,2947.763,193.733Zm.357-.5a7.763,7.763,0,0,1,1.276-.651c.7-.213.865-.5.5-1.131a1.569,1.569,0,0,0-2.379-.676,1.847,1.847,0,0,0-1.23,1.466C2946.255,192.689,2947.149,193.076,2948.12,193.228Z" transform="translate(-799.345 -637.457)" fill="#ffc42e"/>
    <path id="Path_237" data-name="Path 237" d="M3004.488-206.5a2.218,2.218,0,0,1-1.281,2.136,2.014,2.014,0,0,1-2.221-.009,1.219,1.219,0,0,1-.591-1.488,3.312,3.312,0,0,1,1.687-2.233C3003.18-208.606,3004.591-208.336,3004.488-206.5Zm-.507.066.162-.078a4.226,4.226,0,0,0-.827-1.341,1.3,1.3,0,0,0-1.208.218,6.97,6.97,0,0,0-1.191,1.637c-.242.41-.011.785.332,1.05a1.484,1.484,0,0,0,1.622.257A1.7,1.7,0,0,0,3003.981-206.435Z" transform="translate(-846.52 -292.764)" fill="#ffc42e"/>
    <path id="Path_238" data-name="Path 238" d="M3006.129,46.991c-.247,1.81-.484,3.538-.72,5.265C3005.12,50.2,3005.512,47.339,3006.129,46.991Z" transform="translate(-850.832 -513.662)" fill="#ffc42e"/>
    <path id="Path_239" data-name="Path 239" d="M2982.1-127.187q-.369,2.737-.738,5.474l-.185-.026q.365-2.744.729-5.489Z" transform="translate(-829.954 -362.927)" fill="#ffc42e"/>
    <path id="Path_240" data-name="Path 240" d="M2973.5-41.567q-.233,1.572-.467,3.143l-.142-.019.456-3.161Z" transform="translate(-822.783 -437.009)" fill="#ffc42e"/>
    <path id="Path_241" data-name="Path 241" d="M3000.268,54.075q.088-1.08.175-2.16l.219.024q-.121,1.09-.243,2.18Z" transform="translate(-846.468 -517.922)" fill="#ffc42e"/>
    <path id="Path_242" data-name="Path 242" d="M2052.562-376.625c-1.308,0-1.864-.739-1.525-2.014.4-1.49,2.3-2.567,3.553-2.009a1.444,1.444,0,0,1,.887,1.8A3,3,0,0,1,2052.562-376.625Zm.615-2.868c-.542-.524-.915-.445-1.251-.029a1.968,1.968,0,0,0-.285,2.015,1.728,1.728,0,0,0,1.842.181c-1.76-.357-1.906-.466-1.5-1.125a2.221,2.221,0,0,0,1.867.495,1.18,1.18,0,0,0,1.052-1.525,1.516,1.516,0,0,0-1.885-.729C2053.056-380.05,2053.092-379.884,2053.177-379.493Z" transform="translate(-25.108 -143.539)" fill="#ffc42e"/>
    <path id="Path_243" data-name="Path 243" d="M2066.6-466.281a1.543,1.543,0,0,1-1.622-.848,1.527,1.527,0,0,1,.6-1.723,3.6,3.6,0,0,1,2.836-.769,1.034,1.034,0,0,1,.885,1.278A2.656,2.656,0,0,1,2066.6-466.281Zm.138-.828,1.83-1.838a2.066,2.066,0,0,0-2.221.031,1.241,1.241,0,0,0-.925,1.379c.173.692.784.747,1.327.8a1.929,1.929,0,0,0,2.023-1.792C2067.215-467.118,2067.215-467.118,2066.738-467.108Z" transform="translate(-37.174 -66.671)" fill="#ffc42e"/>
    <path id="Path_244" data-name="Path 244" d="M2050.092-266.3c-1.66.021-2.426-.919-2.083-2.552a2.733,2.733,0,0,1,1.1-1.853c.358-.235.768-.443,1.032.172.048.113.234.19.372.238a2.239,2.239,0,0,1,1.428,2.9C2051.671-266.6,2051.186-266.312,2050.092-266.3Zm-.338-4.03-.083-.192a3.029,3.029,0,0,0-.672.394,2.507,2.507,0,0,0-.488,2.514,1.948,1.948,0,0,0,2.088.888.989.989,0,0,0,.972-.855c.33-1.206-1.056-2.891-2.314-2.48Z" transform="translate(-22.502 -238.591)" fill="#ffc42e"/>
    <path id="Path_245" data-name="Path 245" d="M2105.438-524.971c-.752-.032-1.391.02-1.675-.632-.237-.543.081-1.054.814-1.607a2.377,2.377,0,0,1,2.414-.259.888.888,0,0,1,.392,1.536A2.317,2.317,0,0,1,2105.438-524.971Zm1.652-1.736-1.8.958-.079-.152c.284-.171.58-.327.85-.519s.511-.417.791-.649a2.113,2.113,0,0,0-2.454.526.546.546,0,0,0,.35.98,4.511,4.511,0,0,0,1.468-.015A1,1,0,0,0,2107.09-526.708Z" transform="translate(-70.744 -16.457)" fill="#ffc42e"/>
    <path id="Path_246" data-name="Path 246" d="M2036.3-292.387l4.607.6v.124l-1.478.09v.06h1.865l0,.188a18.885,18.885,0,0,1-5.091.06l-.018-.221,2.251-.1.017-.064-2.2-.491Z" transform="translate(-12.342 -220.032)" fill="#ffc42e"/>
    <path id="Path_247" data-name="Path 247" d="M2086.032-356.831a37.263,37.263,0,0,1-.693,8.085A53.068,53.068,0,0,1,2086.032-356.831Z" transform="translate(-54.871 -164.275)" fill="#ffc42e"/>
    <path id="Path_248" data-name="Path 248" d="M2117.149-518.321c.694-2.3,2.408-4.08,3.866-6.017Z" transform="translate(-82.392 -19.347)" fill="#ffc42e"/>
    <path id="Path_249" data-name="Path 249" d="M2095.777-429.705a24.125,24.125,0,0,1,.809-6.324l.18.027Q2096.272-432.854,2095.777-429.705Z" transform="translate(-63.901 -95.753)" fill="#ffc42e"/>
    <path id="Path_250" data-name="Path 250" d="M2105.786-461.895q-.271,1.253-.543,2.506l-.236-.053q.267-1.243.535-2.486Z" transform="translate(-71.886 -73.346)" fill="#ffc42e"/>
    <path id="Path_251" data-name="Path 251" d="M2883.986-273.051a2.307,2.307,0,0,1-3.234,2.17,1.853,1.853,0,0,1-.9-1.138,1.494,1.494,0,0,1,.671-1.819,7.6,7.6,0,0,1,2.408-.7C2883.642-274.62,2883.98-274.038,2883.986-273.051Zm-2.892,1.142c.409.1.742.187,1.081.25.49.092.947.067,1.2-.461a1.747,1.747,0,0,0-.277-1.748,1.61,1.61,0,0,0-.914-.289,2.69,2.69,0,0,0-1.077.335,1.414,1.414,0,0,0-.876,1.45,1.129,1.129,0,0,0,.92,1.042C2881.125-271.582,2881.1-271.793,2881.094-271.909Z" transform="translate(-742.217 -235.471)" fill="#ffc42e"/>
    <path id="Path_252" data-name="Path 252" d="M2758.6-270.167a1.677,1.677,0,0,1-1.823-1.64,1.6,1.6,0,0,1,1.739-1.7,1.939,1.939,0,0,1,1.917,1.852C2760.414-270.7,2759.733-270.144,2758.6-270.167Zm-.637-1.4,2.033.42a1.975,1.975,0,0,0-1.331-1.977,1.121,1.121,0,0,0-1.375.564,1.385,1.385,0,0,0,.423,1.632,1.6,1.6,0,0,0,1.941.048C2758.228-270.742,2757.859-270.922,2757.967-271.562Z" transform="translate(-635.801 -236.365)" fill="#ffc42e"/>
    <path id="Path_253" data-name="Path 253" d="M2821.416-242.635H2814.2c0-.065,0-.129,0-.194A55.143,55.143,0,0,1,2821.416-242.635Z" transform="translate(-685.485 -262.844)" fill="#ffc42e"/>
    <path id="Path_254" data-name="Path 254" d="M2946.194-242.785l2.364.188a4.349,4.349,0,0,1-2.378.056C2946.184-242.622,2946.188-242.7,2946.194-242.785Z" transform="translate(-799.67 -262.947)" fill="#ffc42e"/>
    <path id="Path_255" data-name="Path 255" d="M2497.954,181.37a2.009,2.009,0,0,1,2.337.23,1.585,1.585,0,0,1,.5,1.934,1.187,1.187,0,0,1-.586.649,7.108,7.108,0,0,1-2.172.532c-1.367.01-1.911-1.135-1.156-2.291a1.39,1.39,0,0,1,1.574-.776c-.84.521-1.806.976-1.36,1.977.381.854,1.373.581,2.17.536-.551-.342-1.612-.019-1.63-1.082.708.181,1.305.373,1.917.471.242.039.735-.114.741-.205a1.643,1.643,0,0,0-.2-1.043A2.434,2.434,0,0,0,2497.954,181.37Z" transform="translate(-410.635 -629.695)" fill="#ffc42e"/>
    <path id="Path_256" data-name="Path 256" d="M2617.149,186.579a6.542,6.542,0,0,1,1.121.384,1.318,1.318,0,0,1,.052,2.325,3.133,3.133,0,0,1-3.012.151,1.178,1.178,0,0,1-.51-.656,2.252,2.252,0,0,1,.71-2.259,2.192,2.192,0,0,1,.912-.307c.056-.013.156.164.235.254-.092.065-.193.2-.273.184-.88-.132-.935.6-1.151,1.119a.875.875,0,0,0,.473,1.188,4.084,4.084,0,0,0,1.583.282c-.5-.206-1.144-.2-.976-1.1a4.929,4.929,0,0,0,1.071.555,3.12,3.12,0,0,0,1-.088,2.761,2.761,0,0,0-.239-.974,6.642,6.642,0,0,0-1.007-.949Z" transform="translate(-512.913 -634.12)" fill="#ffc42e"/>
    <path id="Path_257" data-name="Path 257" d="M2384.377,189.33a1.265,1.265,0,0,1-1.445,1.369,1.387,1.387,0,0,1-1.5-1.5c.031-.724.7-1.545,1.255-1.534A1.6,1.6,0,0,1,2384.377,189.33Zm-2.426.32c.488.62,1.347.816,1.754.43a1.261,1.261,0,0,0-.251-1.684,4.013,4.013,0,0,0-.421-.333c-.413-.3-.712-.009-.893.278a.844.844,0,0,0,.021.733c.124.215.417.333.636.494l-.167.216Z" transform="translate(-311.047 -635.375)" fill="#ffc42e"/>
    <path id="Path_258" data-name="Path 258" d="M2550.777,188.928c-2.151.451-4.07.418-4.564,0Z" transform="translate(-453.619 -636.466)" fill="#ffc42e"/>
    <path id="Path_259" data-name="Path 259" d="M2421.106,191.88l-1.832.151-.019-.215c.59-.41,1.261,0,1.878-.125Z" transform="translate(-343.775 -638.803)" fill="#ffc42e"/>
    <path id="Path_260" data-name="Path 260" d="M2993.379-386.879c.23,1.978.465,3.992.7,6.006l-.211.025c-.13-1.02-.248-2.042-.393-3.06-.2-1.373-.461-2.739-.6-4.117a2.255,2.255,0,0,1,2.487-2.734c1.678-.015,2.006.394,1.663,2.07-.257,1.255-1.383,2.33-2.406,2.218A5.945,5.945,0,0,1,2993.379-386.879Zm-.085-1.522a4.019,4.019,0,0,0,.287.688c.064.108.343.22.416.171.837-.567,1.881-.905,2.292-1.96.078-.2.163-.577.086-.626a3.057,3.057,0,0,0-1.027-.41c-.125-.025-.294.3-.454.308C2993.827-390.153,2993.291-389.623,2993.294-388.4Zm.882,1.168c-.008.072-.016.144-.025.215a3.594,3.594,0,0,0,1.286-.093,1.95,1.95,0,0,0,1.074-1.616Z" transform="translate(-840.048 -134.92)" fill="#ffc42e"/>
    <path id="Path_261" data-name="Path 261" d="M3008.928-276.524c-.047.4-.069.756-.136,1.108a1.857,1.857,0,0,1-1.283,1.513,2.056,2.056,0,0,1-2.079-.416,2.156,2.156,0,0,1-.037-2.511,12.543,12.543,0,0,1,1.266-1.566c.594-.625,1.9-.144,2.123.775A9.336,9.336,0,0,1,3008.928-276.524Zm-3,1.817a1.651,1.651,0,0,0,1.983.123,3.257,3.257,0,0,0,.134-3.353c-.307-.417-.66-.483-1.016-.152a8.28,8.28,0,0,0-1.255,1.369,1.148,1.148,0,0,0,.667,1.745c.218.079.439.149.66.223l-.034.163Z" transform="translate(-850.572 -231.892)" fill="#ffc42e"/>
    <path id="Path_262" data-name="Path 262" d="M2967.214-474.12c1.387.028,1.978.559,1.922,1.613a1.849,1.849,0,0,1-2.131,1.715c-.066-.007-.133-.02-.2-.029-1.056-.147-1.705-.735-1.664-1.507a1.845,1.845,0,0,1,1.938-1.794C2967.166-474.108,2967.258-474.12,2967.214-474.12Zm1.349.939c-.316.843-.653,1.481-1.661,1.309,1.013-.268,1.115-.96.923-1.788-.98-.252-1.717-.069-2.064.55a1.057,1.057,0,0,0,.062,1.309,2.252,2.252,0,0,0,2.177.457C2968.608-471.635,2968.766-472.074,2968.563-473.181Z" transform="translate(-816.075 -62.778)" fill="#ffc42e"/>
    <path id="Path_263" data-name="Path 263" d="M2935.3-525.585a12.076,12.076,0,0,1-1.49-.541c-.646-.33-.694-.807-.216-1.365a1.43,1.43,0,0,1,2.018-.2,1.336,1.336,0,0,0,.416.209c.413.114.771.251.73.79a1.069,1.069,0,0,1-.828.943,2.708,2.708,0,0,1-.593.082Zm.249-.657.18.184.576-.642a6.561,6.561,0,0,0-.756-.648.994.994,0,0,0-.647-.163,8.067,8.067,0,0,0-1.121.373c.18.242.313.6.551.7a1.739,1.739,0,0,0,.966-.043,2.348,2.348,0,0,0,.607-.354l.08.134Z" transform="translate(-788.505 -16.165)" fill="#ffc42e"/>
    <path id="Path_264" data-name="Path 264" d="M3025.793-308.805l-.24-1.408C3026.208-310.132,3026.285-309.635,3025.793-308.805Z" transform="translate(-868.345 -204.609)" fill="#ffc42e"/>
    <path id="Path_265" data-name="Path 265" d="M2828.493,190.178c.01,1.057-.372,1.6-1.417,1.644a6.277,6.277,0,0,1-2.2-.376,1.272,1.272,0,0,1-1-1.4,1.694,1.694,0,0,1,1.235-1.592,6.738,6.738,0,0,1,2.377-.083C2828.222,188.464,2828.482,189.071,2828.493,190.178Zm-1.84,1.109.069.167c.407-.2,1.094-.324,1.16-.6a2.532,2.532,0,0,0-.258-1.63,1.314,1.314,0,0,0-1.548-.5,1.555,1.555,0,0,1-.582.09c-.6-.126-.834.333-.975.7a1.228,1.228,0,0,0,.152,1.013A2.234,2.234,0,0,0,2826.653,191.287Z" transform="translate(-693.841 -635.923)" fill="#ffc42e"/>
    <path id="Path_266" data-name="Path 266" d="M2774.973,189.9h-7.665l0-.085h7.637Z" transform="translate(-644.908 -637.234)" fill="#ffc42e"/>
    <path id="Path_267" data-name="Path 267" d="M2490.257-388.869h-1.81v-.108h1.809Z" transform="translate(-403.64 -136.462)" fill="#ffc42e"/>
    <path id="Path_268" data-name="Path 268" d="M2504.608-102.723c.8-.453,2.091-.477,2.333,0Z" transform="translate(-417.622 -383.827)" fill="#ffc42e"/>
    <path id="Path_269" data-name="Path 269" d="M2888.427-195.6c.7.2.731.568.554,1.02a1.307,1.307,0,0,1-1.776.756C2887.871-194.246,2889.173-194.184,2888.427-195.6Z" transform="translate(-748.646 -303.773)" fill="#ffc42e"/>
    <path id="Path_270" data-name="Path 270" d="M2506.61-195.924c.228,1.127,1.311.768,2.011,1.137a1.92,1.92,0,0,1-2.144-.272c-.146-.2-.1-.54-.146-.816Z" transform="translate(-419.114 -303.492)" fill="#ffc42e"/>
    <path id="Path_271" data-name="Path 271" d="M2639.313-192.253l2.492.949-.009.158a15.283,15.283,0,0,1-2.191-.358C2639.062-191.67,2639.061-192.048,2639.313-192.253Z" transform="translate(-534.028 -306.668)" fill="#ffc42e"/>
    <path id="Path_272" data-name="Path 272" d="M3010.3-190.4a1.443,1.443,0,0,1-1.729.409c-.179-.107-.242-.406-.358-.618.194.029.388.067.583.085C3009.286-190.475,3009.782-190.438,3010.3-190.4Z" transform="translate(-853.338 -308.094)" fill="#ffc42e"/>
  </g>
</svg>
